<?xml version="1.0" encoding="utf-8"?>
<!-- Generator: Adobe Illustrator 24.0.1, SVG Export Plug-In . SVG Version: 6.00 Build 0)  -->
<svg version="1.1" id="Layer_1" xmlns="http://www.w3.org/2000/svg" xmlns:xlink="http://www.w3.org/1999/xlink" x="0px" y="0px"
	 viewBox="0 0 58.4 53.55" style="enable-background:new 0 0 58.4 53.55;" xml:space="preserve">
<style type="text/css">
	.st0{fill:none;}
	.st1{fill-rule:evenodd;clip-rule:evenodd;fill:#6AC3E2;}
	.st2{fill:#00A3E3;}
	.st3{opacity:0.45;fill:#0046A9;}
	.st4{fill:#E1EEFF;}
	.st5{fill:#FFFFFF;}
	.st6{fill:#C5D5DF;}
	.st7{fill:#737373;}
	.st8{fill:#0038A9;}
	.st9{fill:#0043C6;}
	.st10{fill:#003276;}
	.st11{fill:#00215C;}
	.st12{fill:url(#SVGID_1_);}
	.st13{fill:#42B6E5;}
	.st14{fill:#2F98BC;}
	.st15{fill:url(#SVGID_2_);}
	.st16{fill:#FFD21C;}
	.st17{fill:url(#SVGID_3_);}
	.st18{fill:url(#SVGID_4_);}
	.st19{fill:url(#SVGID_5_);}
	.st20{fill:url(#SVGID_6_);}
	.st21{fill:url(#SVGID_7_);}
	.st22{fill:url(#SVGID_8_);}
	.st23{fill:url(#SVGID_9_);}
	.st24{fill:url(#SVGID_10_);}
	.st25{fill:url(#SVGID_11_);}
	.st26{fill:url(#SVGID_12_);}
	.st27{fill:url(#SVGID_13_);}
	.st28{fill:url(#SVGID_14_);}
	.st29{fill:url(#SVGID_15_);}
	.st30{fill:url(#SVGID_16_);}
	.st31{fill:url(#SVGID_17_);}
	.st32{fill:url(#SVGID_18_);}
	.st33{fill:url(#SVGID_19_);}
	.st34{fill:url(#SVGID_20_);}
	.st35{fill:url(#SVGID_21_);}
	.st36{fill:url(#SVGID_22_);}
	.st37{fill:url(#SVGID_23_);}
	.st38{fill:url(#SVGID_24_);}
	.st39{fill:url(#SVGID_25_);}
	.st40{fill:url(#SVGID_26_);}
	.st41{fill:url(#SVGID_27_);}
	.st42{fill:url(#SVGID_28_);}
	.st43{fill:url(#SVGID_29_);}
	.st44{fill:url(#SVGID_30_);}
	.st45{fill:url(#SVGID_31_);}
	.st46{fill:url(#SVGID_32_);}
	.st47{fill:url(#SVGID_33_);}
	.st48{fill:url(#SVGID_34_);}
	.st49{fill:url(#SVGID_35_);}
	.st50{fill:url(#SVGID_36_);}
	.st51{fill:url(#SVGID_37_);}
	.st52{fill:url(#SVGID_38_);}
	.st53{fill:url(#SVGID_39_);}
	.st54{fill:url(#SVGID_40_);}
	.st55{fill:#FFBE1C;}
	.st56{fill:#FFEF66;}
	.st57{fill:#FFB51C;}
	.st58{fill:#FFEB63;}
	.st59{opacity:0.2;}
	.st60{fill:#FFFB72;}
	.st61{fill:#FFC01C;}
	.st62{fill:#FFA91C;}
	.st63{fill:#FF991D;}
	.st64{fill:#009658;}
	.st65{fill:#008458;}
	.st66{fill:#3DE784;}
	.st67{fill:#00C552;}
	.st68{fill:#FFC51C;}
	.st69{fill:#FFE51B;}
	.st70{fill:#FFD91C;}
	.st71{fill:#FFD61C;}
	.st72{fill:#FFE91B;}
	.st73{fill:#FFA21C;}
	.st74{fill:#FF8C1D;}
	.st75{fill:#FFFA1B;}
</style>
<pattern  width="310.24" height="310.24" patternUnits="userSpaceOnUse" id="New_Pattern_Swatch_5" viewBox="0 -379.18 310.24 310.24" style="overflow:visible;">
	<g>
		<rect y="-379.18" class="st0" width="310.24" height="310.24"/>
		<rect x="0" y="-103.41" class="st1" width="103.41" height="103.41"/>
		<rect x="206.82" y="-137.88" class="st1" width="103.41" height="103.41"/>
		<rect x="103.41" y="-172.35" class="st1" width="103.41" height="103.41"/>
		<rect x="0" y="-206.82" class="st1" width="103.41" height="103.41"/>
		<rect x="206.82" y="-241.29" class="st1" width="103.41" height="103.41"/>
		<rect x="103.41" y="-275.76" class="st1" width="103.41" height="103.41"/>
		<rect x="0" y="-310.24" class="st1" width="103.41" height="103.41"/>
		<rect x="206.82" y="-344.71" class="st1" width="103.41" height="103.41"/>
		<rect x="103.41" y="-379.18" class="st1" width="103.41" height="103.41"/>
		<rect x="0" y="-413.65" class="st1" width="103.41" height="103.41"/>
		<rect x="206.82" y="-448.12" class="st1" width="103.41" height="103.41"/>
	</g>
</pattern>
<g>
	<g>
		<g>
			<g>
				<g>
					<g>
						<polygon class="st2" points="42.06,3.58 41.8,4.11 41.2,4.2 41.63,4.62 41.53,5.21 42.06,4.93 42.59,5.21 42.49,4.62 
							42.92,4.2 42.33,4.11 						"/>
					</g>
					<g>
						<polygon class="st2" points="45.2,0.55 44.94,1.08 44.35,1.17 44.78,1.59 44.67,2.18 45.2,1.9 45.73,2.18 45.63,1.59 
							46.06,1.17 45.47,1.08 						"/>
					</g>
					<g>
						<polygon class="st2" points="44.25,5.21 44.14,5.43 43.9,5.46 44.07,5.63 44.03,5.87 44.25,5.76 44.46,5.87 44.42,5.63 
							44.6,5.46 44.36,5.43 						"/>
					</g>
					<g>
						<polygon class="st2" points="40.28,8.31 40.17,8.53 39.93,8.56 40.1,8.73 40.06,8.97 40.28,8.86 40.49,8.97 40.45,8.73 
							40.63,8.56 40.38,8.53 						"/>
					</g>
					<g>
						<polygon class="st2" points="37.4,9.26 37.29,9.48 37.05,9.51 37.22,9.68 37.18,9.92 37.4,9.81 37.62,9.92 37.57,9.68 
							37.75,9.51 37.51,9.48 						"/>
					</g>
					<g>
						<polygon class="st2" points="40.45,-0.13 40.34,0.09 40.1,0.12 40.27,0.29 40.23,0.53 40.45,0.42 40.67,0.53 40.62,0.29 
							40.8,0.12 40.56,0.09 						"/>
					</g>
					<g>
						<polygon class="st2" points="47.7,9.56 47.59,9.78 47.35,9.81 47.52,9.98 47.48,10.22 47.7,10.11 47.91,10.22 47.87,9.98 
							48.05,9.81 47.81,9.78 						"/>
					</g>
					<g>
						<polygon class="st2" points="39.93,11.98 39.82,12.2 39.58,12.24 39.75,12.41 39.71,12.65 39.93,12.54 40.14,12.65 
							40.1,12.41 40.28,12.24 40.03,12.2 						"/>
					</g>
					<polygon class="st2" points="49.13,4.74 49.03,5.09 48.63,5.18 49.03,5.28 49.13,5.68 49.22,5.28 49.62,5.18 49.22,5.09 					
						"/>
					<polygon class="st2" points="39.61,14.17 39.52,14.52 39.12,14.61 39.52,14.71 39.61,15.11 39.71,14.71 40.11,14.61 
						39.71,14.52 					"/>
					<polygon class="st2" points="44.46,10.04 44.4,10.28 44.12,10.34 44.4,10.41 44.46,10.67 44.53,10.41 44.8,10.34 44.53,10.28 
											"/>
					<polygon class="st2" points="42.4,12.2 42.34,12.44 42.06,12.5 42.34,12.57 42.4,12.84 42.47,12.57 42.74,12.5 42.47,12.44 
											"/>
					<polygon class="st2" points="42.67,14.64 42.63,14.79 42.46,14.83 42.63,14.87 42.67,15.04 42.71,14.87 42.88,14.83 
						42.71,14.79 					"/>
					<polygon class="st2" points="41.21,11.23 41.17,11.38 40.99,11.42 41.17,11.47 41.21,11.63 41.25,11.47 41.42,11.42 
						41.25,11.38 					"/>
				</g>
				<g>
					<g>
						<polygon class="st2" points="45.4,20.06 45.61,20.49 46.08,20.56 45.74,20.89 45.82,21.36 45.4,21.14 44.98,21.36 
							45.06,20.89 44.72,20.56 45.19,20.49 						"/>
					</g>
					<g>
						<polygon class="st2" points="44.93,15.92 45.14,16.35 45.61,16.41 45.27,16.75 45.35,17.22 44.93,16.99 44.51,17.22 
							44.59,16.75 44.25,16.41 44.72,16.35 						"/>
					</g>
					<g>
						<polygon class="st2" points="46.32,22.46 46.41,22.64 46.6,22.67 46.46,22.8 46.5,22.99 46.32,22.9 46.15,22.99 46.18,22.8 
							46.05,22.67 46.24,22.64 						"/>
					</g>
					<g>
						<polygon class="st2" points="48.85,22.09 48.93,22.26 49.13,22.29 48.99,22.43 49.02,22.62 48.85,22.53 48.67,22.62 
							48.71,22.43 48.57,22.29 48.76,22.26 						"/>
					</g>
					<g>
						<polygon class="st2" points="51.13,22.84 51.22,23.02 51.41,23.05 51.27,23.18 51.31,23.37 51.13,23.28 50.96,23.37 51,23.18 
							50.86,23.05 51.05,23.02 						"/>
					</g>
					<g>
						<polygon class="st2" points="51.13,18.71 51.22,18.89 51.41,18.92 51.27,19.05 51.31,19.24 51.13,19.15 50.96,19.24 51,19.05 
							50.86,18.92 51.05,18.89 						"/>
					</g>
					<g>
						<polygon class="st2" points="57.75,14.43 57.84,14.6 58.03,14.63 57.89,14.77 57.92,14.96 57.75,14.87 57.58,14.96 
							57.61,14.77 57.47,14.63 57.66,14.6 						"/>
					</g>
					<g>
						<polygon class="st2" points="49.84,15.26 49.93,15.43 50.12,15.46 49.98,15.6 50.01,15.79 49.84,15.7 49.67,15.79 49.7,15.6 
							49.56,15.46 49.75,15.43 						"/>
					</g>
					<g>
						<polygon class="st2" points="43.03,23.11 43.11,23.28 43.31,23.31 43.17,23.45 43.2,23.64 43.03,23.55 42.86,23.64 
							42.89,23.45 42.75,23.31 42.94,23.28 						"/>
					</g>
					<g>
						<polygon class="st2" points="49.13,25.01 49.21,25.19 49.4,25.22 49.26,25.35 49.3,25.54 49.13,25.45 48.95,25.54 
							48.99,25.35 48.85,25.22 49.04,25.19 						"/>
					</g>
					<polygon class="st2" points="44.17,21.79 44.24,22.07 44.56,22.14 44.24,22.22 44.17,22.53 44.09,22.22 43.77,22.14 
						44.09,22.07 					"/>
					<polygon class="st2" points="49.37,26.75 49.44,27.03 49.77,27.1 49.44,27.18 49.37,27.5 49.3,27.18 48.98,27.1 49.3,27.03 
											"/>
					<polygon class="st2" points="45.52,23.46 45.57,23.65 45.79,23.7 45.57,23.76 45.52,23.97 45.47,23.76 45.25,23.7 45.47,23.65 
											"/>
					<polygon class="st2" points="47.16,25.19 47.21,25.38 47.43,25.42 47.21,25.48 47.16,25.69 47.11,25.48 46.89,25.42 
						47.11,25.38 					"/>
					<polygon class="st2" points="46.94,27.12 46.97,27.24 47.11,27.27 46.97,27.31 46.94,27.44 46.91,27.31 46.77,27.27 
						46.91,27.24 					"/>
					<polygon class="st2" points="48.11,24.42 48.14,24.54 48.28,24.56 48.14,24.6 48.11,24.73 48.07,24.6 47.94,24.56 48.07,24.54 
											"/>
				</g>
			</g>
		</g>
		<g>
			<g>
				<g>
					<g>
						<polygon class="st2" points="15.6,3.49 15.86,4.03 16.45,4.11 16.03,4.53 16.13,5.12 15.6,4.84 15.07,5.12 15.17,4.53 
							14.74,4.11 15.33,4.03 						"/>
					</g>
					<g>
						<polygon class="st2" points="12.45,0.46 12.72,0.99 13.31,1.08 12.88,1.5 12.98,2.09 12.45,1.81 11.92,2.09 12.02,1.5 
							11.6,1.08 12.19,0.99 						"/>
					</g>
					<g>
						<polygon class="st2" points="13.41,5.12 13.52,5.34 13.76,5.38 13.58,5.55 13.63,5.79 13.41,5.67 13.19,5.79 13.23,5.55 
							13.06,5.38 13.3,5.34 						"/>
					</g>
					<g>
						<polygon class="st2" points="17.38,8.22 17.49,8.44 17.73,8.47 17.56,8.64 17.6,8.88 17.38,8.77 17.16,8.88 17.21,8.64 
							17.03,8.47 17.27,8.44 						"/>
					</g>
					<g>
						<polygon class="st2" points="20.26,9.17 20.37,9.39 20.61,9.42 20.43,9.59 20.48,9.83 20.26,9.72 20.04,9.83 20.08,9.59 
							19.91,9.42 20.15,9.39 						"/>
					</g>
					<g>
						<polygon class="st2" points="17.6,0.94 17.71,1.16 17.95,1.19 17.77,1.36 17.82,1.61 17.6,1.49 17.38,1.61 17.42,1.36 
							17.25,1.19 17.49,1.16 						"/>
					</g>
					<g>
						<polygon class="st2" points="9.96,9.47 10.07,9.69 10.31,9.72 10.13,9.89 10.18,10.14 9.96,10.02 9.74,10.14 9.78,9.89 
							9.61,9.72 9.85,9.69 						"/>
					</g>
					<g>
						<polygon class="st2" points="17.73,11.9 17.84,12.12 18.08,12.15 17.91,12.32 17.95,12.56 17.73,12.45 17.51,12.56 
							17.56,12.32 17.38,12.15 17.62,12.12 						"/>
					</g>
					<polygon class="st2" points="8.53,4.65 8.62,5 9.03,5.09 8.62,5.19 8.53,5.59 8.44,5.19 8.03,5.09 8.44,5 					"/>
					<polygon class="st2" points="18.04,14.08 18.13,14.44 18.54,14.52 18.13,14.63 18.04,15.02 17.95,14.63 17.54,14.52 
						17.95,14.44 					"/>
					<polygon class="st2" points="13.2,9.95 13.26,10.19 13.54,10.25 13.26,10.32 13.2,10.59 13.13,10.32 12.86,10.25 13.13,10.19 
											"/>
					<polygon class="st2" points="15.26,12.11 15.32,12.35 15.6,12.41 15.32,12.48 15.26,12.75 15.19,12.48 14.92,12.41 
						15.19,12.35 					"/>
					<polygon class="st2" points="14.99,14.55 15.03,14.7 15.2,14.74 15.03,14.78 14.99,14.95 14.95,14.78 14.77,14.74 14.95,14.7 
											"/>
					<polygon class="st2" points="16.45,11.15 16.49,11.3 16.66,11.33 16.49,11.38 16.45,11.55 16.41,11.38 16.24,11.33 16.41,11.3 
											"/>
				</g>
				<g>
					<g>
						<polygon class="st2" points="12.25,19.98 12.04,20.4 11.57,20.47 11.91,20.8 11.83,21.27 12.25,21.05 12.68,21.27 12.6,20.8 
							12.94,20.47 12.47,20.4 						"/>
					</g>
					<g>
						<polygon class="st2" points="12.73,15.83 12.52,16.26 12.05,16.33 12.39,16.66 12.31,17.13 12.73,16.91 13.15,17.13 
							13.07,16.66 13.41,16.33 12.94,16.26 						"/>
					</g>
					<g>
						<polygon class="st2" points="11.33,22.38 11.25,22.55 11.06,22.58 11.19,22.71 11.16,22.91 11.33,22.81 11.51,22.91 
							11.47,22.71 11.61,22.58 11.42,22.55 						"/>
					</g>
					<g>
						<polygon class="st2" points="8.81,22 8.72,22.17 8.53,22.2 8.67,22.34 8.64,22.53 8.81,22.44 8.98,22.53 8.95,22.34 
							9.09,22.2 8.9,22.17 						"/>
					</g>
					<g>
						<polygon class="st2" points="6.52,22.76 6.44,22.93 6.24,22.96 6.38,23.09 6.35,23.29 6.52,23.19 6.69,23.29 6.66,23.09 
							6.8,22.96 6.61,22.93 						"/>
					</g>
					<g>
						<polygon class="st2" points="6.52,18.62 6.44,18.8 6.24,18.83 6.38,18.96 6.35,19.15 6.52,19.06 6.69,19.15 6.66,18.96 
							6.8,18.83 6.61,18.8 						"/>
					</g>
					<g>
						<polygon class="st2" points="-0.09,14.34 -0.18,14.52 -0.37,14.54 -0.23,14.68 -0.27,14.87 -0.09,14.78 0.08,14.87 
							0.05,14.68 0.18,14.54 -0.01,14.52 						"/>
					</g>
					<g>
						<polygon class="st2" points="7.82,15.17 7.73,15.34 7.54,15.37 7.68,15.51 7.65,15.7 7.82,15.61 7.99,15.7 7.96,15.51 
							8.1,15.37 7.9,15.34 						"/>
					</g>
					<g>
						<polygon class="st2" points="14.63,23.02 14.54,23.19 14.35,23.22 14.49,23.36 14.46,23.55 14.63,23.46 14.8,23.55 
							14.77,23.36 14.91,23.22 14.72,23.19 						"/>
					</g>
					<g>
						<polygon class="st2" points="8.53,24.92 8.45,25.1 8.25,25.13 8.39,25.26 8.36,25.45 8.53,25.36 8.7,25.45 8.67,25.26 
							8.81,25.13 8.62,25.1 						"/>
					</g>
					<polygon class="st2" points="13.49,21.7 13.42,21.98 13.09,22.05 13.42,22.13 13.49,22.45 13.57,22.13 13.89,22.05 
						13.57,21.98 					"/>
					<polygon class="st2" points="8.28,26.66 8.21,26.94 7.89,27.01 8.21,27.09 8.28,27.41 8.36,27.09 8.68,27.01 8.36,26.94 					
						"/>
					<polygon class="st2" points="12.14,23.38 12.09,23.57 11.87,23.61 12.09,23.67 12.14,23.88 12.19,23.67 12.41,23.61 
						12.19,23.57 					"/>
					<polygon class="st2" points="10.5,25.1 10.45,25.29 10.23,25.33 10.45,25.39 10.5,25.6 10.55,25.39 10.77,25.33 10.55,25.29 
											"/>
					<polygon class="st2" points="10.71,27.04 10.68,27.16 10.54,27.18 10.68,27.22 10.71,27.35 10.75,27.22 10.88,27.18 
						10.75,27.16 					"/>
					<polygon class="st2" points="9.55,24.33 9.52,24.45 9.38,24.48 9.52,24.51 9.55,24.65 9.58,24.51 9.72,24.48 9.58,24.45 					
						"/>
				</g>
			</g>
		</g>
	</g>
	<g>
		<ellipse class="st3" cx="28.31" cy="50.16" rx="7.27" ry="3.26"/>
		<g>
			<g>
				<g>
					<g>
						<g>
							<path class="st4" d="M16.06,30.3l0.15-0.32l0.19,0.26l2.54-0.45c-0.07,3.25,3.04,7.01,3.04,7.01l5.85,7.38l-0.57,0.45
								l-0.57,0.45l-5.85-7.38c0,0-2.95-3.88-6.13-4.55l1.28-2.73l-0.08-0.1L16.06,30.3z"/>
							<path class="st5" d="M27.26,44.63l0.55-0.47l-6.1-7.17c0,0-3.23-3.65-3.27-6.9l-2.53,0.53l0,0l0.09-0.19l-0.08-0.1l0.14-0.02
								l0.15-0.32l0.19,0.26l2.54-0.45c-0.07,3.25,3.04,7.01,3.04,7.01l5.85,7.38l-0.57,0.45l-0.13,0.1L27.26,44.63z"/>
							
								<ellipse transform="matrix(0.7835 -0.6214 0.6214 0.7835 -15.6181 16.8145)" class="st6" cx="16.32" cy="30.82" rx="3.33" ry="2.21"/>
							
								<ellipse transform="matrix(0.7835 -0.6214 0.6214 0.7835 -15.4726 16.585)" class="st5" cx="16.06" cy="30.5" rx="3.33" ry="2.26"/>
							
								<ellipse transform="matrix(0.7835 -0.6214 0.6214 0.7835 -15.4555 16.558)" class="st4" cx="16.03" cy="30.46" rx="3.33" ry="2.21"/>
							<path class="st5" d="M14.95,29.09c-1.07,0.85-1.5,2.09-0.96,2.78c0.54,0.68,1.85,0.55,2.92-0.3c1.07-0.85,1.5-2.09,0.96-2.78
								C17.33,28.1,16.02,28.24,14.95,29.09z"/>
							<path class="st7" d="M14.95,29.09c-1.05,0.84-1.49,2.03-0.98,2.68c0.51,0.64,1.78,0.49,2.83-0.35
								c1.05-0.84,1.49-2.03,0.98-2.68C17.27,28.1,16,28.25,14.95,29.09z"/>
						</g>
						<g>
							<path class="st8" d="M14.59,36.88l0.03-0.33l0.26,0.16l2.11-1.24C18,38.39,22,40.7,22,40.7l7.63,4.62l-0.35,0.59l-0.35,0.59
								l-7.63-4.62c0,0-3.9-2.47-6.95-2.02l0.24-2.85l-0.1-0.06L14.59,36.88z"/>
							<path class="st9" d="M29.27,45.92l0.33-0.6l-7.79-4.36c0,0-4.07-2.17-5.19-5.05l-2.07,1.31l0,0l0.02-0.2l-0.1-0.06l0.11-0.07
								l0.03-0.33l0.26,0.16l2.11-1.24C18,38.39,22,40.7,22,40.7l7.63,4.62L29.27,45.92l-0.07,0.13L29.27,45.92z"/>
							<path class="st10" d="M13.2,36.17c-0.9,1.49-0.83,3.19,0.16,3.79c0.99,0.6,2.52-0.12,3.43-1.62c0.9-1.49,0.83-3.19-0.16-3.79
								C15.64,33.96,14.1,34.68,13.2,36.17z"/>
							<path class="st9" d="M12.82,35.94c-0.9,1.49-0.82,3.2,0.19,3.81c1.01,0.61,2.56-0.1,3.47-1.59c0.9-1.49,0.82-3.2-0.19-3.81
								C15.28,33.74,13.73,34.45,12.82,35.94z"/>
							
								<ellipse transform="matrix(0.518 -0.8554 0.8554 0.518 -24.629 30.3492)" class="st8" cx="14.62" cy="37.03" rx="3.16" ry="2.09"/>
							<path class="st9" d="M13.2,36.17c-0.67,1.11-0.64,2.36,0.06,2.78c0.71,0.43,1.82-0.12,2.5-1.23
								c0.67-1.11,0.64-2.36-0.06-2.78C14.99,34.51,13.87,35.06,13.2,36.17z"/>
							<path class="st11" d="M13.2,36.17c-0.66,1.09-0.66,2.3,0.01,2.7c0.67,0.4,1.74-0.15,2.4-1.24c0.66-1.09,0.66-2.3-0.01-2.7
								C14.93,34.52,13.86,35.08,13.2,36.17z"/>
						</g>
						<g>
							
								<pattern  id="SVGID_1_" xlink:href="#New_Pattern_Swatch_5" patternTransform="matrix(-0.6709 0 0 0.6709 -14551.1289 -3011.0415)">
							</pattern>
							<path class="st12" d="M15.58,43.26l-0.11-0.28l0.28,0.03L17,41.15c1.99,2,6.21,2.33,6.21,2.33l8.14,0.79l-0.06,0.62
								l-0.06,0.62l-8.14-0.79c0,0-4.2-0.49-6.54,1.09l-0.93-2.44l-0.11-0.01L15.58,43.26z"/>
							<path class="st13" d="M31.28,44.89l0.04-0.63l-8.16-0.51c0,0-4.23-0.18-6.28-2.11l-1.19,1.9l0,0l-0.07-0.17l-0.11-0.01
								l0.07-0.1l-0.11-0.28l0.28,0.03L17,41.15c1.99,2,6.21,2.33,6.21,2.33l8.14,0.79L31.28,44.89l-0.01,0.13L31.28,44.89z"/>
							
								<ellipse transform="matrix(0.0963 -0.9954 0.9954 0.0963 -28.701 55.2168)" class="st14" cx="16.06" cy="43.41" rx="2.89" ry="1.92"/>
							
								<ellipse transform="matrix(0.0963 -0.9954 0.9954 0.0963 -28.9891 54.8306)" class="st13" cx="15.7" cy="43.38" rx="2.89" ry="1.96"/>
							
								<pattern  id="SVGID_2_" xlink:href="#New_Pattern_Swatch_5" patternTransform="matrix(-0.6709 0 0 0.6709 -14551.1289 -3011.0415)">
							</pattern>
							<path class="st15" d="M13.75,43.19c-0.15,1.59,0.58,2.96,1.63,3.06s2.03-1.1,2.19-2.69c0.15-1.59-0.58-2.96-1.63-3.06
								S13.9,41.6,13.75,43.19z"/>
							<path class="st13" d="M14.15,43.23c-0.11,1.18,0.4,2.2,1.16,2.27c0.75,0.07,1.46-0.83,1.57-2.01c0.11-1.18-0.4-2.2-1.16-2.27
								C14.97,41.15,14.26,42.05,14.15,43.23z"/>
							
								<ellipse transform="matrix(0.0963 -0.9954 0.9954 0.0963 -29.2037 54.5426)" class="st14" cx="15.43" cy="43.35" rx="2.11" ry="1.29"/>
						</g>
					</g>
					<g>
						<polygon class="st16" points="14.23,36.34 13.47,35.11 11.39,35.11 						"/>
						<polygon class="st11" points="12.65,38.65 11.04,37.95 8.96,39.38 						"/>
						<polygon class="st16" points="9.93,31.92 10.44,33.41 9.33,32.67 						"/>
						<polygon class="st4" points="9.15,36.51 9.54,37.65 8.69,37.08 						"/>
						
							<pattern  id="SVGID_3_" xlink:href="#New_Pattern_Swatch_5" patternTransform="matrix(-0.6709 0 0 0.6709 -14551.1289 -3011.0415)">
						</pattern>
						<polygon class="st17" points="11.39,37.05 10.19,37.76 9.99,36.9 						"/>
						
							<pattern  id="SVGID_4_" xlink:href="#New_Pattern_Swatch_5" patternTransform="matrix(-0.6709 0 0 0.6709 -14551.1289 -3011.0415)">
						</pattern>
						<polygon class="st18" points="15.52,35.48 14.42,34.62 15.14,34.12 						"/>
						<path class="st8" d="M10.19,35.74c0,0.14-0.12,0.26-0.26,0.26c-0.14,0-0.26-0.12-0.26-0.26s0.12-0.26,0.26-0.26
							C10.07,35.48,10.19,35.59,10.19,35.74z"/>
						<path class="st8" d="M13.23,33.59c0,0.14-0.12,0.26-0.26,0.26c-0.14,0-0.26-0.12-0.26-0.26c0-0.14,0.12-0.26,0.26-0.26
							C13.11,33.33,13.23,33.45,13.23,33.59z"/>
						
							<pattern  id="SVGID_5_" xlink:href="#New_Pattern_Swatch_5" patternTransform="matrix(-0.6709 0 0 0.6709 -14551.1289 -3011.0415)">
						</pattern>
						<path class="st19" d="M8.45,33.8c0,0.14-0.12,0.26-0.26,0.26s-0.26-0.12-0.26-0.26c0-0.14,0.12-0.26,0.26-0.26
							S8.45,33.66,8.45,33.8z"/>
						
							<pattern  id="SVGID_6_" xlink:href="#New_Pattern_Swatch_5" patternTransform="matrix(-0.6709 0 0 0.6709 -14551.1289 -3011.0415)">
						</pattern>
						<path class="st20" d="M10.63,34.74c0,0.14-0.12,0.26-0.26,0.26c-0.14,0-0.26-0.12-0.26-0.26c0-0.14,0.12-0.26,0.26-0.26
							C10.51,34.47,10.63,34.59,10.63,34.74z"/>
						
							<pattern  id="SVGID_7_" xlink:href="#New_Pattern_Swatch_5" patternTransform="matrix(-0.6709 0 0 0.6709 -14551.1289 -3011.0415)">
						</pattern>
						<circle class="st21" cx="6.88" cy="35.28" r="0.09"/>
						
							<pattern  id="SVGID_8_" xlink:href="#New_Pattern_Swatch_5" patternTransform="matrix(-0.6709 0 0 0.6709 -14551.1289 -3011.0415)">
						</pattern>
						<path class="st22" d="M6,32.73c0,0.05-0.04,0.09-0.09,0.09c-0.05,0-0.09-0.04-0.09-0.09c0-0.05,0.04-0.09,0.09-0.09
							C5.96,32.64,6,32.68,6,32.73z"/>
						<circle class="st16" cx="11.12" cy="36" r="0.09"/>
						<path class="st4" d="M12.09,33.85c0,0.14-0.12,0.26-0.26,0.26c-0.14,0-0.26-0.12-0.26-0.26c0-0.14,0.12-0.26,0.26-0.26
							C11.98,33.59,12.09,33.71,12.09,33.85z"/>
						<path class="st4" d="M11.3,30.91c0,0.14-0.12,0.26-0.26,0.26c-0.14,0-0.26-0.12-0.26-0.26c0-0.14,0.12-0.26,0.26-0.26
							C11.18,30.65,11.3,30.77,11.3,30.91z"/>
						<path class="st16" d="M7.14,30.55c0,0.14-0.12,0.26-0.26,0.26s-0.26-0.12-0.26-0.26c0-0.14,0.12-0.26,0.26-0.26
							S7.14,30.4,7.14,30.55z"/>
						<path class="st16" d="M14.15,37.33c0,0.14-0.12,0.26-0.26,0.26c-0.14,0-0.26-0.12-0.26-0.26s0.12-0.26,0.26-0.26
							C14.04,37.07,14.15,37.19,14.15,37.33z"/>
						<path class="st16" d="M12.23,36.27c0,0.14-0.12,0.26-0.26,0.26c-0.14,0-0.26-0.12-0.26-0.26s0.12-0.26,0.26-0.26
							C12.12,36.01,12.23,36.13,12.23,36.27z"/>
						<path class="st16" d="M14.15,34.74c0,0.14-0.12,0.26-0.26,0.26c-0.14,0-0.26-0.12-0.26-0.26c0-0.14,0.12-0.26,0.26-0.26
							C14.04,34.47,14.15,34.59,14.15,34.74z"/>
					</g>
					<g>
						<polygon class="st16" points="15.8,29.19 16.01,28.02 14.74,26.88 						"/>
						<polygon class="st11" points="13.56,29.74 12.96,28.43 10.9,28.17 						"/>
						<polygon class="st16" points="15.59,24.13 15.08,25.32 14.81,24.25 						"/>
						<polygon class="st4" points="12.59,26.51 12.2,27.42 12,26.61 						"/>
						
							<pattern  id="SVGID_9_" xlink:href="#New_Pattern_Swatch_5" patternTransform="matrix(-0.6709 0 0 0.6709 -14551.1289 -3011.0415)">
						</pattern>
						<polygon class="st23" points="13.67,28.08 12.55,27.85 12.89,27.21 						"/>
						
							<pattern  id="SVGID_10_" xlink:href="#New_Pattern_Swatch_5" patternTransform="matrix(-0.6709 0 0 0.6709 -14551.1289 -3011.0415)">
						</pattern>
						<polygon class="st24" points="17.06,29.38 16.86,28.25 17.57,28.34 						"/>
						<path class="st8" d="M13.65,26.61c-0.08,0.09-0.21,0.1-0.3,0.02s-0.1-0.21-0.02-0.3c0.08-0.09,0.21-0.1,0.3-0.02
							C13.72,26.38,13.73,26.52,13.65,26.61z"/>
						<path class="st8" d="M16.69,26.96c-0.08,0.09-0.21,0.1-0.3,0.02s-0.1-0.21-0.02-0.3c0.08-0.09,0.21-0.1,0.3-0.02
							C16.76,26.73,16.77,26.87,16.69,26.96z"/>
						
							<pattern  id="SVGID_11_" xlink:href="#New_Pattern_Swatch_5" patternTransform="matrix(-0.6709 0 0 0.6709 -14551.1289 -3011.0415)">
						</pattern>
						<path class="st25" d="M13.65,24.47c-0.08,0.09-0.21,0.1-0.3,0.02s-0.1-0.21-0.02-0.3c0.08-0.09,0.21-0.1,0.3-0.02
							S13.73,24.38,13.65,24.47z"/>
						
							<pattern  id="SVGID_12_" xlink:href="#New_Pattern_Swatch_5" patternTransform="matrix(-0.6709 0 0 0.6709 -14551.1289 -3011.0415)">
						</pattern>
						<path class="st26" d="M14.47,26.23c-0.08,0.09-0.21,0.1-0.3,0.02s-0.1-0.21-0.02-0.3c0.08-0.09,0.21-0.1,0.3-0.02
							S14.55,26.15,14.47,26.23z"/>
						
							<pattern  id="SVGID_13_" xlink:href="#New_Pattern_Swatch_5" patternTransform="matrix(-0.6709 0 0 0.6709 -14551.1289 -3011.0415)">
						</pattern>
						<path class="st27" d="M11.93,24.56c-0.03,0.03-0.07,0.03-0.1,0.01c-0.03-0.03-0.03-0.07-0.01-0.1
							c0.03-0.03,0.07-0.03,0.1-0.01C11.95,24.49,11.96,24.53,11.93,24.56z"/>
						
							<pattern  id="SVGID_14_" xlink:href="#New_Pattern_Swatch_5" patternTransform="matrix(-0.6709 0 0 0.6709 -14551.1289 -3011.0415)">
						</pattern>
						<path class="st28" d="M12.74,22.47c-0.03,0.03-0.07,0.03-0.1,0.01s-0.03-0.07-0.01-0.1c0.03-0.03,0.07-0.03,0.1-0.01
							C12.76,22.39,12.76,22.44,12.74,22.47z"/>
						<path class="st16" d="M14.13,27.32c-0.03,0.03-0.07,0.03-0.1,0.01c-0.03-0.03-0.03-0.07-0.01-0.1
							c0.03-0.03,0.07-0.03,0.1-0.01C14.16,27.25,14.16,27.3,14.13,27.32z"/>
						<path class="st4" d="M15.85,26.5c-0.08,0.09-0.21,0.1-0.3,0.02c-0.09-0.08-0.1-0.21-0.02-0.3s0.21-0.1,0.3-0.02
							C15.92,26.27,15.93,26.41,15.85,26.5z"/>
						<path class="st4" d="M16.98,24.26c-0.08,0.09-0.21,0.1-0.3,0.02s-0.1-0.21-0.02-0.3s0.21-0.1,0.3-0.02
							S17.06,24.17,16.98,24.26z"/>
						<path class="st16" d="M14.63,21.76c-0.08,0.09-0.21,0.1-0.3,0.02c-0.09-0.08-0.1-0.21-0.02-0.3c0.08-0.09,0.21-0.1,0.3-0.02
							S14.71,21.67,14.63,21.76z"/>
						<path class="st16" d="M15.21,29.76c-0.08,0.09-0.21,0.1-0.3,0.02c-0.09-0.08-0.1-0.21-0.02-0.3c0.08-0.09,0.21-0.1,0.3-0.02
							S15.29,29.67,15.21,29.76z"/>
						<path class="st16" d="M14.61,28.05c-0.08,0.09-0.21,0.1-0.3,0.02c-0.09-0.08-0.1-0.21-0.02-0.3c0.08-0.09,0.21-0.1,0.3-0.02
							S14.69,27.97,14.61,28.05z"/>
						<path class="st16" d="M16.63,28.17c-0.08,0.09-0.21,0.1-0.3,0.02s-0.1-0.21-0.02-0.3c0.08-0.09,0.21-0.1,0.3-0.02
							C16.7,27.95,16.71,28.08,16.63,28.17z"/>
					</g>
					<g>
						<polygon class="st16" points="13.94,43.8 12.94,43.63 11.96,44.71 						"/>
						<polygon class="st11" points="14.41,45.72 13.29,46.24 13.06,48 						"/>
						<polygon class="st16" points="9.6,43.99 10.62,44.42 9.71,44.66 						"/>
						<polygon class="st4" points="11.64,46.55 12.42,46.88 11.73,47.06 						"/>
						
							<pattern  id="SVGID_15_" xlink:href="#New_Pattern_Swatch_5" patternTransform="matrix(-0.6709 0 0 0.6709 -14551.1289 -3011.0415)">
						</pattern>
						<polygon class="st29" points="12.98,45.63 12.79,46.59 12.25,46.29 						"/>
						
							<pattern  id="SVGID_16_" xlink:href="#New_Pattern_Swatch_5" patternTransform="matrix(-0.6709 0 0 0.6709 -14551.1289 -3011.0415)">
						</pattern>
						<polygon class="st30" points="14.1,42.72 13.13,42.9 13.21,42.29 						"/>
						<path class="st8" d="M11.73,45.64c0.08,0.07,0.08,0.18,0.01,0.26c-0.07,0.08-0.18,0.08-0.26,0.01
							c-0.08-0.07-0.08-0.18-0.01-0.26C11.53,45.58,11.65,45.57,11.73,45.64z"/>
						<path class="st8" d="M12.03,43.04c0.08,0.07,0.08,0.18,0.01,0.26c-0.07,0.08-0.18,0.08-0.26,0.01
							c-0.08-0.07-0.08-0.18-0.01-0.26S11.95,42.98,12.03,43.04z"/>
						
							<pattern  id="SVGID_17_" xlink:href="#New_Pattern_Swatch_5" patternTransform="matrix(-0.6709 0 0 0.6709 -14551.1289 -3011.0415)">
						</pattern>
						<path class="st31" d="M9.89,45.64c0.08,0.07,0.08,0.18,0.01,0.26c-0.07,0.08-0.18,0.08-0.26,0.01
							c-0.08-0.07-0.08-0.18-0.01-0.26C9.7,45.58,9.82,45.58,9.89,45.64z"/>
						
							<pattern  id="SVGID_18_" xlink:href="#New_Pattern_Swatch_5" patternTransform="matrix(-0.6709 0 0 0.6709 -14551.1289 -3011.0415)">
						</pattern>
						<path class="st32" d="M11.41,44.94c0.08,0.07,0.08,0.18,0.01,0.26c-0.07,0.08-0.18,0.08-0.26,0.01
							c-0.08-0.07-0.08-0.18-0.01-0.26C11.21,44.88,11.33,44.88,11.41,44.94z"/>
						
							<pattern  id="SVGID_19_" xlink:href="#New_Pattern_Swatch_5" patternTransform="matrix(-0.6709 0 0 0.6709 -14551.1289 -3011.0415)">
						</pattern>
						<path class="st33" d="M9.98,47.12c0.02,0.02,0.03,0.06,0,0.08c-0.02,0.02-0.06,0.03-0.08,0c-0.02-0.02-0.03-0.06,0-0.08
							C9.91,47.1,9.95,47.1,9.98,47.12z"/>
						
							<pattern  id="SVGID_20_" xlink:href="#New_Pattern_Swatch_5" patternTransform="matrix(-0.6709 0 0 0.6709 -14551.1289 -3011.0415)">
						</pattern>
						<path class="st34" d="M8.18,46.43c0.02,0.02,0.03,0.06,0,0.08c-0.02,0.02-0.06,0.03-0.08,0c-0.02-0.02-0.03-0.06,0-0.08
							C8.12,46.41,8.16,46.41,8.18,46.43z"/>
						<path class="st16" d="M12.34,45.23c0.02,0.02,0.03,0.06,0,0.08c-0.02,0.02-0.06,0.03-0.08,0c-0.02-0.02-0.03-0.06,0-0.08
							C12.28,45.21,12.31,45.21,12.34,45.23z"/>
						<path class="st4" d="M11.63,43.76c0.08,0.07,0.08,0.18,0.01,0.26c-0.07,0.08-0.18,0.08-0.26,0.01
							c-0.08-0.07-0.08-0.18-0.01-0.26C11.44,43.7,11.55,43.69,11.63,43.76z"/>
						<path class="st4" d="M9.71,42.8c0.08,0.07,0.08,0.18,0.01,0.26c-0.07,0.08-0.18,0.08-0.26,0.01C9.39,43,9.39,42.89,9.45,42.81
							C9.52,42.73,9.64,42.73,9.71,42.8z"/>
						<path class="st16" d="M7.57,44.8c0.08,0.07,0.08,0.18,0.01,0.26c-0.07,0.08-0.18,0.08-0.26,0.01
							c-0.08-0.07-0.08-0.18-0.01-0.26C7.38,44.74,7.5,44.74,7.57,44.8z"/>
						<path class="st16" d="M14.42,44.31c0.08,0.07,0.08,0.18,0.01,0.26c-0.07,0.08-0.18,0.08-0.26,0.01
							c-0.08-0.07-0.08-0.18-0.01-0.26C14.23,44.25,14.35,44.24,14.42,44.31z"/>
						<path class="st16" d="M12.96,44.82c0.08,0.07,0.08,0.18,0.01,0.26c-0.07,0.08-0.18,0.08-0.26,0.01
							c-0.08-0.07-0.08-0.18-0.01-0.26C12.77,44.76,12.89,44.75,12.96,44.82z"/>
						<path class="st16" d="M13.06,43.09c0.08,0.07,0.08,0.18,0.01,0.26c-0.07,0.08-0.18,0.08-0.26,0.01
							c-0.08-0.07-0.08-0.18-0.01-0.26C12.87,43.03,12.99,43.03,13.06,43.09z"/>
					</g>
				</g>
				<g>
					<g>
						<g>
							<path class="st4" d="M40.73,30.3l-0.15-0.32l-0.19,0.26l-2.54-0.45c0.07,3.25-3.04,7.01-3.04,7.01l-5.85,7.38l0.57,0.45
								l0.57,0.45l5.85-7.38c0,0,2.95-3.88,6.13-4.55l-1.28-2.73l0.08-0.1L40.73,30.3z"/>
							<path class="st5" d="M29.53,44.63l-0.55-0.47l6.1-7.17c0,0,3.23-3.65,3.27-6.9l2.53,0.53l0,0l-0.09-0.19l0.08-0.1l-0.14-0.02
								l-0.15-0.32l-0.19,0.26l-2.54-0.45c0.07,3.25-3.04,7.01-3.04,7.01l-5.85,7.38l0.57,0.45l0.13,0.1L29.53,44.63z"/>
							
								<ellipse transform="matrix(0.6214 -0.7835 0.7835 0.6214 -8.822 43.38)" class="st6" cx="40.48" cy="30.82" rx="2.21" ry="3.33"/>
							
								<ellipse transform="matrix(0.6214 -0.7835 0.7835 0.6214 -8.4714 43.4586)" class="st5" cx="40.73" cy="30.5" rx="2.26" ry="3.33"/>
							
								<ellipse transform="matrix(0.6214 -0.7835 0.7835 0.6214 -8.4301 43.4678)" class="st4" cx="40.76" cy="30.46" rx="2.21" ry="3.33"/>
							<path class="st5" d="M41.85,29.09c1.07,0.85,1.5,2.09,0.96,2.78c-0.54,0.68-1.85,0.55-2.92-0.3
								c-1.07-0.85-1.5-2.09-0.96-2.78C39.47,28.1,40.78,28.24,41.85,29.09z"/>
							
								<ellipse transform="matrix(0.6214 -0.7835 0.7835 0.6214 -8.2102 43.5172)" class="st7" cx="40.93" cy="30.25" rx="1.49" ry="2.43"/>
						</g>
						<g>
							<path class="st8" d="M42.21,36.88l-0.03-0.33l-0.26,0.16l-2.11-1.24c-1.01,2.91-5.01,5.23-5.01,5.23l-7.63,4.62l0.35,0.59
								l0.35,0.59l7.63-4.62c0,0,3.9-2.47,6.95-2.02l-0.24-2.85l0.1-0.06L42.21,36.88z"/>
							<path class="st9" d="M27.52,45.92l-0.33-0.6l7.79-4.36c0,0,4.07-2.17,5.19-5.05l2.07,1.31l0,0l-0.02-0.2l0.1-0.06l-0.11-0.07
								l-0.03-0.33l-0.26,0.16l-2.11-1.24c-1.01,2.91-5.01,5.23-5.01,5.23l-7.63,4.62L27.52,45.92l0.07,0.13L27.52,45.92z"/>
							<path class="st10" d="M43.6,36.17c0.9,1.49,0.83,3.19-0.16,3.79c-0.99,0.6-2.52-0.12-3.43-1.62
								c-0.9-1.49-0.83-3.19,0.16-3.79C41.16,33.96,42.69,34.68,43.6,36.17z"/>
							<path class="st9" d="M43.97,35.94c0.9,1.49,0.82,3.2-0.19,3.81c-1.01,0.61-2.56-0.1-3.47-1.59c-0.9-1.49-0.82-3.2,0.19-3.81
								C41.52,33.74,43.07,34.45,43.97,35.94z"/>
							
								<ellipse transform="matrix(0.8554 -0.518 0.518 0.8554 -13.0809 27.2059)" class="st8" cx="42.18" cy="37.03" rx="2.09" ry="3.16"/>
							<path class="st9" d="M43.6,36.17c0.67,1.11,0.64,2.36-0.06,2.78c-0.71,0.43-1.82-0.12-2.5-1.23
								c-0.67-1.11-0.64-2.36,0.06-2.78C41.81,34.51,42.93,35.06,43.6,36.17z"/>
							<path class="st11" d="M43.6,36.17c0.66,1.09,0.66,2.3-0.01,2.7c-0.67,0.4-1.74-0.15-2.4-1.24c-0.66-1.09-0.66-2.3,0.01-2.7
								C41.86,34.52,42.94,35.08,43.6,36.17z"/>
						</g>
						<g>
							
								<pattern  id="SVGID_21_" xlink:href="#New_Pattern_Swatch_5" patternTransform="matrix(-0.6709 0 0 0.6709 -14551.1289 -3011.0415)">
							</pattern>
							<path class="st35" d="M41.22,43.26l0.11-0.28l-0.28,0.03l-1.25-1.86c-1.99,2-6.21,2.33-6.21,2.33l-8.14,0.79l0.06,0.62
								l0.06,0.62l8.14-0.79c0,0,4.2-0.49,6.54,1.09l0.93-2.44l0.11-0.01L41.22,43.26z"/>
							<path class="st13" d="M25.52,44.89l-0.04-0.63l8.16-0.51c0,0,4.23-0.18,6.28-2.11l1.19,1.9l0,0l0.07-0.17l0.11-0.01
								l-0.07-0.1l0.11-0.28l-0.28,0.03l-1.25-1.86c-1.99,2-6.21,2.33-6.21,2.33l-8.14,0.79L25.52,44.89l0.01,0.13L25.52,44.89z"/>
							
								<ellipse transform="matrix(0.9954 -0.0963 0.0963 0.9954 -3.9897 4.1232)" class="st14" cx="40.74" cy="43.41" rx="1.92" ry="2.89"/>
							
								<ellipse transform="matrix(0.9954 -0.0963 0.0963 0.9954 -3.9846 4.1572)" class="st13" cx="41.1" cy="43.38" rx="1.96" ry="2.89"/>
							
								<pattern  id="SVGID_22_" xlink:href="#New_Pattern_Swatch_5" patternTransform="matrix(-0.6709 0 0 0.6709 -14551.1289 -3011.0415)">
							</pattern>
							<path class="st36" d="M43.05,43.19c0.15,1.59-0.58,2.96-1.63,3.06c-1.05,0.1-2.03-1.1-2.19-2.69
								c-0.15-1.59,0.58-2.96,1.63-3.06C41.91,40.39,42.89,41.6,43.05,43.19z"/>
							<path class="st13" d="M42.65,43.23c0.11,1.18-0.4,2.2-1.16,2.27c-0.75,0.07-1.46-0.83-1.57-2.01
								c-0.11-1.18,0.4-2.2,1.16-2.27C41.83,41.15,42.53,42.05,42.65,43.23z"/>
							
								<ellipse transform="matrix(0.9954 -0.0963 0.0963 0.9954 -3.9811 4.1829)" class="st14" cx="41.36" cy="43.35" rx="1.29" ry="2.11"/>
						</g>
					</g>
					<g>
						<polygon class="st16" points="42.56,36.34 43.33,35.11 45.4,35.11 						"/>
						<polygon class="st11" points="44.15,38.65 45.76,37.95 47.83,39.38 						"/>
						<polygon class="st16" points="46.87,31.92 46.36,33.41 47.47,32.67 						"/>
						<polygon class="st4" points="47.65,36.51 47.26,37.65 48.11,37.08 						"/>
						
							<pattern  id="SVGID_23_" xlink:href="#New_Pattern_Swatch_5" patternTransform="matrix(-0.6709 0 0 0.6709 -14551.1289 -3011.0415)">
						</pattern>
						<polygon class="st37" points="45.4,37.05 46.61,37.76 46.8,36.9 						"/>
						
							<pattern  id="SVGID_24_" xlink:href="#New_Pattern_Swatch_5" patternTransform="matrix(-0.6709 0 0 0.6709 -14551.1289 -3011.0415)">
						</pattern>
						<polygon class="st38" points="41.27,35.48 42.37,34.62 41.65,34.12 						"/>
						<path class="st8" d="M46.61,35.74c0,0.14,0.12,0.26,0.26,0.26c0.14,0,0.26-0.12,0.26-0.26s-0.12-0.26-0.26-0.26
							C46.72,35.48,46.61,35.59,46.61,35.74z"/>
						<path class="st8" d="M43.57,33.59c0,0.14,0.12,0.26,0.26,0.26s0.26-0.12,0.26-0.26c0-0.14-0.12-0.26-0.26-0.26
							S43.57,33.45,43.57,33.59z"/>
						
							<pattern  id="SVGID_25_" xlink:href="#New_Pattern_Swatch_5" patternTransform="matrix(-0.6709 0 0 0.6709 -14551.1289 -3011.0415)">
						</pattern>
						<circle class="st39" cx="48.6" cy="33.8" r="0.26"/>
						
							<pattern  id="SVGID_26_" xlink:href="#New_Pattern_Swatch_5" patternTransform="matrix(-0.6709 0 0 0.6709 -14551.1289 -3011.0415)">
						</pattern>
						<path class="st40" d="M46.17,34.74c0,0.14,0.12,0.26,0.26,0.26s0.26-0.12,0.26-0.26c0-0.14-0.12-0.26-0.26-0.26
							S46.17,34.59,46.17,34.74z"/>
						
							<pattern  id="SVGID_27_" xlink:href="#New_Pattern_Swatch_5" patternTransform="matrix(-0.6709 0 0 0.6709 -14551.1289 -3011.0415)">
						</pattern>
						<circle class="st41" cx="49.91" cy="35.28" r="0.09"/>
						
							<pattern  id="SVGID_28_" xlink:href="#New_Pattern_Swatch_5" patternTransform="matrix(-0.6709 0 0 0.6709 -14551.1289 -3011.0415)">
						</pattern>
						<path class="st42" d="M50.8,32.73c0,0.05,0.04,0.09,0.09,0.09c0.05,0,0.09-0.04,0.09-0.09c0-0.05-0.04-0.09-0.09-0.09
							C50.84,32.64,50.8,32.68,50.8,32.73z"/>
						<path class="st16" d="M45.59,36c0,0.05,0.04,0.09,0.09,0.09c0.05,0,0.09-0.04,0.09-0.09c0-0.05-0.04-0.09-0.09-0.09
							C45.63,35.91,45.59,35.95,45.59,36z"/>
						<path class="st4" d="M44.71,33.85c0,0.14,0.12,0.26,0.26,0.26c0.14,0,0.26-0.12,0.26-0.26c0-0.14-0.12-0.26-0.26-0.26
							C44.82,33.59,44.71,33.71,44.71,33.85z"/>
						<path class="st4" d="M45.5,30.91c0,0.14,0.12,0.26,0.26,0.26c0.14,0,0.26-0.12,0.26-0.26c0-0.14-0.12-0.26-0.26-0.26
							C45.62,30.65,45.5,30.77,45.5,30.91z"/>
						<path class="st16" d="M49.65,30.55c0,0.14,0.12,0.26,0.26,0.26s0.26-0.12,0.26-0.26c0-0.14-0.12-0.26-0.26-0.26
							S49.65,30.4,49.65,30.55z"/>
						<path class="st16" d="M42.64,37.33c0,0.14,0.12,0.26,0.26,0.26c0.14,0,0.26-0.12,0.26-0.26s-0.12-0.26-0.26-0.26
							C42.76,37.07,42.64,37.19,42.64,37.33z"/>
						<path class="st16" d="M44.56,36.27c0,0.14,0.12,0.26,0.26,0.26c0.14,0,0.26-0.12,0.26-0.26s-0.12-0.26-0.26-0.26
							C44.68,36.01,44.56,36.13,44.56,36.27z"/>
						<path class="st16" d="M42.64,34.74c0,0.14,0.12,0.26,0.26,0.26c0.14,0,0.26-0.12,0.26-0.26c0-0.14-0.12-0.26-0.26-0.26
							C42.76,34.47,42.64,34.59,42.64,34.74z"/>
					</g>
					<g>
						<polygon class="st16" points="41,29.19 40.79,28.02 42.06,26.88 						"/>
						<polygon class="st11" points="43.24,29.74 43.84,28.43 45.89,28.17 						"/>
						<polygon class="st16" points="41.21,24.13 41.72,25.32 41.99,24.25 						"/>
						<polygon class="st4" points="44.21,26.51 44.59,27.42 44.8,26.61 						"/>
						
							<pattern  id="SVGID_29_" xlink:href="#New_Pattern_Swatch_5" patternTransform="matrix(-0.6709 0 0 0.6709 -14551.1289 -3011.0415)">
						</pattern>
						<polygon class="st43" points="43.13,28.08 44.25,27.85 43.9,27.21 						"/>
						
							<pattern  id="SVGID_30_" xlink:href="#New_Pattern_Swatch_5" patternTransform="matrix(-0.6709 0 0 0.6709 -14551.1289 -3011.0415)">
						</pattern>
						<polygon class="st44" points="39.74,29.38 39.94,28.25 39.23,28.34 						"/>
						<path class="st8" d="M43.14,26.61c0.08,0.09,0.21,0.1,0.3,0.02s0.1-0.21,0.02-0.3c-0.08-0.09-0.21-0.1-0.3-0.02
							C43.07,26.38,43.06,26.52,43.14,26.61z"/>
						<path class="st8" d="M40.11,26.96c0.08,0.09,0.21,0.1,0.3,0.02s0.1-0.21,0.02-0.3c-0.08-0.09-0.21-0.1-0.3-0.02
							C40.04,26.73,40.03,26.87,40.11,26.96z"/>
						
							<pattern  id="SVGID_31_" xlink:href="#New_Pattern_Swatch_5" patternTransform="matrix(-0.6709 0 0 0.6709 -14551.1289 -3011.0415)">
						</pattern>
						<path class="st45" d="M43.15,24.47c0.08,0.09,0.21,0.1,0.3,0.02s0.1-0.21,0.02-0.3c-0.08-0.09-0.21-0.1-0.3-0.02
							S43.07,24.38,43.15,24.47z"/>
						
							<pattern  id="SVGID_32_" xlink:href="#New_Pattern_Swatch_5" patternTransform="matrix(-0.6709 0 0 0.6709 -14551.1289 -3011.0415)">
						</pattern>
						<path class="st46" d="M42.33,26.23c0.08,0.09,0.21,0.1,0.3,0.02s0.1-0.21,0.02-0.3c-0.08-0.09-0.21-0.1-0.3-0.02
							S42.25,26.15,42.33,26.23z"/>
						
							<pattern  id="SVGID_33_" xlink:href="#New_Pattern_Swatch_5" patternTransform="matrix(-0.6709 0 0 0.6709 -14551.1289 -3011.0415)">
						</pattern>
						<path class="st47" d="M44.87,24.56c0.03,0.03,0.07,0.03,0.1,0.01c0.03-0.03,0.03-0.07,0.01-0.1s-0.07-0.03-0.1-0.01
							C44.84,24.49,44.84,24.53,44.87,24.56z"/>
						
							<pattern  id="SVGID_34_" xlink:href="#New_Pattern_Swatch_5" patternTransform="matrix(-0.6709 0 0 0.6709 -14551.1289 -3011.0415)">
						</pattern>
						<path class="st48" d="M44.06,22.47c0.03,0.03,0.07,0.03,0.1,0.01s0.03-0.07,0.01-0.1s-0.07-0.03-0.1-0.01
							C44.04,22.39,44.04,22.44,44.06,22.47z"/>
						<path class="st16" d="M42.66,27.32c0.03,0.03,0.07,0.03,0.1,0.01c0.03-0.03,0.03-0.07,0.01-0.1s-0.07-0.03-0.1-0.01
							C42.64,27.25,42.64,27.3,42.66,27.32z"/>
						<path class="st4" d="M40.95,26.5c0.08,0.09,0.21,0.1,0.3,0.02c0.09-0.08,0.1-0.21,0.02-0.3s-0.21-0.1-0.3-0.02
							C40.87,26.27,40.87,26.41,40.95,26.5z"/>
						<path class="st4" d="M39.82,24.26c0.08,0.09,0.21,0.1,0.3,0.02s0.1-0.21,0.02-0.3c-0.08-0.09-0.21-0.1-0.3-0.02
							S39.74,24.17,39.82,24.26z"/>
						<path class="st16" d="M42.16,21.76c0.08,0.09,0.21,0.1,0.3,0.02c0.09-0.08,0.1-0.21,0.02-0.3c-0.08-0.09-0.21-0.1-0.3-0.02
							S42.08,21.67,42.16,21.76z"/>
						<path class="st16" d="M41.59,29.76c0.08,0.09,0.21,0.1,0.3,0.02c0.09-0.08,0.1-0.21,0.02-0.3c-0.08-0.09-0.21-0.1-0.3-0.02
							S41.51,29.67,41.59,29.76z"/>
						<path class="st16" d="M42.18,28.05c0.08,0.09,0.21,0.1,0.3,0.02s0.1-0.21,0.02-0.3c-0.08-0.09-0.21-0.1-0.3-0.02
							S42.11,27.97,42.18,28.05z"/>
						<path class="st16" d="M40.17,28.17c0.08,0.09,0.21,0.1,0.3,0.02s0.1-0.21,0.02-0.3c-0.08-0.09-0.21-0.1-0.3-0.02
							C40.1,27.95,40.09,28.08,40.17,28.17z"/>
					</g>
					<g>
						<polygon class="st16" points="42.86,43.8 43.86,43.63 44.84,44.71 						"/>
						<polygon class="st11" points="42.39,45.72 43.51,46.24 43.73,48 						"/>
						<polygon class="st16" points="47.2,43.99 46.17,44.42 47.09,44.66 						"/>
						<polygon class="st4" points="45.15,46.55 44.37,46.88 45.07,47.06 						"/>
						
							<pattern  id="SVGID_35_" xlink:href="#New_Pattern_Swatch_5" patternTransform="matrix(-0.6709 0 0 0.6709 -14551.1289 -3011.0415)">
						</pattern>
						<polygon class="st49" points="43.81,45.63 44.01,46.59 44.55,46.29 						"/>
						
							<pattern  id="SVGID_36_" xlink:href="#New_Pattern_Swatch_5" patternTransform="matrix(-0.6709 0 0 0.6709 -14551.1289 -3011.0415)">
						</pattern>
						<polygon class="st50" points="42.7,42.72 43.67,42.9 43.59,42.29 						"/>
						<path class="st8" d="M45.07,45.64c-0.08,0.07-0.08,0.18-0.01,0.26c0.07,0.08,0.18,0.08,0.26,0.01
							c0.08-0.07,0.08-0.18,0.01-0.26C45.26,45.58,45.15,45.57,45.07,45.64z"/>
						<path class="st8" d="M44.77,43.04c-0.08,0.07-0.08,0.18-0.01,0.26c0.07,0.08,0.18,0.08,0.26,0.01
							c0.08-0.07,0.08-0.18,0.01-0.26S44.85,42.98,44.77,43.04z"/>
						
							<pattern  id="SVGID_37_" xlink:href="#New_Pattern_Swatch_5" patternTransform="matrix(-0.6709 0 0 0.6709 -14551.1289 -3011.0415)">
						</pattern>
						<path class="st51" d="M46.9,45.64c-0.08,0.07-0.08,0.18-0.01,0.26c0.07,0.08,0.18,0.08,0.26,0.01
							c0.08-0.07,0.08-0.18,0.01-0.26C47.09,45.58,46.98,45.58,46.9,45.64z"/>
						
							<pattern  id="SVGID_38_" xlink:href="#New_Pattern_Swatch_5" patternTransform="matrix(-0.6709 0 0 0.6709 -14551.1289 -3011.0415)">
						</pattern>
						<path class="st52" d="M45.39,44.94c-0.08,0.07-0.08,0.18-0.01,0.26c0.07,0.08,0.18,0.08,0.26,0.01
							c0.08-0.07,0.08-0.18,0.01-0.26C45.58,44.88,45.47,44.88,45.39,44.94z"/>
						
							<pattern  id="SVGID_39_" xlink:href="#New_Pattern_Swatch_5" patternTransform="matrix(-0.6709 0 0 0.6709 -14551.1289 -3011.0415)">
						</pattern>
						<path class="st53" d="M46.82,47.12c-0.02,0.02-0.03,0.06,0,0.08s0.06,0.03,0.08,0c0.02-0.02,0.03-0.06,0-0.08
							C46.88,47.1,46.85,47.1,46.82,47.12z"/>
						
							<pattern  id="SVGID_40_" xlink:href="#New_Pattern_Swatch_5" patternTransform="matrix(-0.6709 0 0 0.6709 -14551.1289 -3011.0415)">
						</pattern>
						<path class="st54" d="M48.62,46.43c-0.02,0.02-0.03,0.06,0,0.08c0.02,0.02,0.06,0.03,0.08,0c0.02-0.02,0.03-0.06,0-0.08
							C48.68,46.41,48.64,46.41,48.62,46.43z"/>
						<path class="st16" d="M44.46,45.23c-0.02,0.02-0.03,0.06,0,0.08c0.02,0.02,0.06,0.03,0.08,0c0.02-0.02,0.03-0.06,0-0.08
							C44.52,45.21,44.48,45.21,44.46,45.23z"/>
						<path class="st4" d="M45.17,43.76c-0.08,0.07-0.08,0.18-0.01,0.26c0.07,0.08,0.18,0.08,0.26,0.01
							c0.08-0.07,0.08-0.18,0.01-0.26C45.36,43.7,45.24,43.69,45.17,43.76z"/>
						<path class="st4" d="M47.08,42.8c-0.08,0.07-0.08,0.18-0.01,0.26c0.07,0.08,0.18,0.08,0.26,0.01
							c0.08-0.07,0.08-0.18,0.01-0.26C47.27,42.73,47.16,42.73,47.08,42.8z"/>
						<path class="st16" d="M49.22,44.8c-0.08,0.07-0.08,0.18-0.01,0.26c0.07,0.08,0.18,0.08,0.26,0.01
							c0.08-0.07,0.08-0.18,0.01-0.26C49.42,44.74,49.3,44.74,49.22,44.8z"/>
						<path class="st16" d="M42.37,44.31c-0.08,0.07-0.08,0.18-0.01,0.26c0.07,0.08,0.18,0.08,0.26,0.01
							c0.08-0.07,0.08-0.18,0.01-0.26C42.57,44.25,42.45,44.24,42.37,44.31z"/>
						<path class="st16" d="M43.83,44.82c-0.08,0.07-0.08,0.18-0.01,0.26c0.07,0.08,0.18,0.08,0.26,0.01
							c0.08-0.07,0.08-0.18,0.01-0.26C44.02,44.76,43.91,44.75,43.83,44.82z"/>
						<path class="st16" d="M43.73,43.09c-0.08,0.07-0.08,0.18-0.01,0.26c0.07,0.08,0.18,0.08,0.26,0.01
							c0.08-0.07,0.08-0.18,0.01-0.26C43.93,43.03,43.81,43.03,43.73,43.09z"/>
					</g>
				</g>
				<g>
					<g>
						<circle class="st16" cx="28.76" cy="16.79" r="8.47"/>
						<path class="st55" d="M29.96,18.8c-0.13,0.6,0.4,1.08,0.4,1.08c0.01,0.85,0.32,1.35,0.32,1.35l0.88,0.55l0.57,1.64l0.76,0.64
							l0.01,0.11c0.65-0.37,1.25-0.82,1.78-1.33c0.01-0.07,0.01-0.12,0.01-0.12l-0.06-1.34c0.29-0.01,0.37-0.28,0.37-0.28l0.12-0.56
							c1.29-0.48,1.44-1.68,1.44-1.68l-0.15-0.68L36.1,17.2l0.66-0.6l0.33-0.51c0,0,0.01-0.06,0.1-0.15
							c-0.05-0.55-0.16-1.08-0.32-1.59l-0.07-0.01l-0.2,0.51l0.29,0.57l-0.21,1.02L36.1,16.6l-0.52-0.04l-0.24-0.22l-0.29-0.25
							l-0.32-0.07l0.25,0.2l-0.29,0.21l-0.76,0.03l-0.39,0.35l-1.43,0.35l-0.26,0.53l-0.47,0.6L29.96,18.8z M20.29,16.79
							c0,2.39,0.99,4.54,2.58,6.08l0.12-0.14l-0.35-0.97l0.52-1.34l-0.28-0.76l0.38-0.79l0.01-1.09l0.09-0.42l0.37,0.2
							c0,0,0.09-0.18,1.26,0.1c1.18,0.27,2.38-0.95,2.38-0.95l-0.29-1.15l0.59-1.06l-1.14-1.04l-0.9-0.67l-1.83-0.17l-0.87,0.45
							l-0.71-0.08l0.2-0.39l0.52-0.3l0.22-0.22l0.54,0.09l0.34-0.12l0.2-0.39l0.33,0.17l0.54-0.25l0.02,0.49
							c0,0,0.33,0.41,0.72,0.49c0.39,0.08,0.77-0.66,0.77-0.66l-0.76-0.4l-0.36-0.8l-0.05-0.57l0.54,0.09l0.36-0.24l0.38,0.15
							l0.11-1.01l-0.75-0.34C22.72,9.87,20.29,13.04,20.29,16.79z M29.39,8.35l0.18,0.79l0.76,0.3l0.54,0.4l0.56,0.58l2.83,0.59
							L34.92,12l0.41,0.59l-0.32,1.17l0.31,0.38l0.4-0.18l0.91-0.31C35.45,10.71,32.68,8.59,29.39,8.35z"/>
						<g>
							<path class="st56" d="M32.89,24.08l-0.76-0.64l-0.57-1.64l-0.88-0.55c0,0-0.31-0.5-0.32-1.35c0,0-0.53-0.47-0.4-1.08
								l1.43-0.5l0.47-0.6l0.26-0.53l1.43-0.35l0.39-0.35l0.76-0.03l0.29-0.21l-0.25-0.2l0.32,0.07l0.29,0.25l0.24,0.22l0.52,0.04
								l0.57-0.17l0.21-1.02l-0.29-0.57l0.2-0.51l0.07,0.01c0.15,0.51,0.26,1.04,0.32,1.59c-0.09,0.09-0.1,0.15-0.1,0.15l-0.33,0.51
								l-0.66,0.6l0.33,0.98l0.15,0.68c0,0-0.16,1.2-1.44,1.68l-0.12,0.56c0,0-0.08,0.27-0.37,0.28l0.06,1.34c0,0,0,0.03-0.01,0.09
								c-0.53,0.52-1.13,0.97-1.79,1.34L32.89,24.08z"/>
							<path class="st56" d="M20.29,16.8c0-0.04,0-0.08,0-0.12c0-0.08,0-0.17,0.01-0.25c0-0.09,0.01-0.18,0.02-0.27
								c0-0.02,0-0.04,0.01-0.07c0.29-3.43,2.62-6.27,5.77-7.31l0.75,0.34l-0.11,1.01l-0.38-0.15l-0.36,0.24l-0.54-0.09l0.05,0.57
								l0.36,0.8l0.76,0.4c0,0-0.37,0.74-0.77,0.66c-0.39-0.08-0.72-0.49-0.72-0.49l-0.02-0.49l-0.54,0.25l-0.33-0.17l-0.2,0.39
								l-0.34,0.12l-0.54-0.09l-0.22,0.22l-0.52,0.3l-0.2,0.39l0.71,0.08l0.87-0.45l1.83,0.17l0.9,0.67l1.14,1.04l-0.59,1.06
								l0.29,1.15c0,0-1.2,1.22-2.38,0.95c-1.18-0.27-1.26-0.1-1.26-0.1l-0.37-0.2l-0.09,0.42l-0.01,1.09l-0.38,0.79l0.28,0.76
								l-0.52,1.34l0.35,0.97l-0.11,0.13C21.29,21.34,20.3,19.19,20.29,16.8z"/>
							<path class="st56" d="M36.62,13.68l-0.91,0.31l-0.4,0.18l-0.31-0.38l0.32-1.17l-0.41-0.59l-0.66-0.99l-2.83-0.59l-0.56-0.58
								l-0.54-0.4l-0.76-0.3l-0.18-0.79C32.68,8.62,35.45,10.74,36.62,13.68z"/>
						</g>
						<g>
							<path class="st57" d="M20.31,16.26c0.01-0.09,0.01-0.18,0.02-0.27c0-0.05,0.01-0.09,0.01-0.14c0.01-0.09,0.02-0.18,0.03-0.27
								c0.01-0.04,0.01-0.08,0.02-0.12c0.02-0.12,0.04-0.24,0.06-0.36c0-0.01,0.01-0.03,0.01-0.04c0.02-0.12,0.05-0.24,0.08-0.35
								c0.01-0.04,0.02-0.09,0.03-0.13c0.02-0.08,0.04-0.16,0.07-0.24c0.01-0.05,0.03-0.1,0.05-0.14c0.02-0.07,0.05-0.15,0.08-0.22
								c0.02-0.05,0.03-0.09,0.05-0.14c0.03-0.09,0.07-0.18,0.1-0.26c0.02-0.05,0.04-0.1,0.07-0.16c0.04-0.08,0.07-0.17,0.11-0.25
								c0.02-0.05,0.05-0.1,0.08-0.15c0.03-0.06,0.06-0.12,0.09-0.18c0.03-0.05,0.06-0.11,0.09-0.16c0.03-0.05,0.06-0.1,0.09-0.16
								c0.03-0.06,0.07-0.11,0.1-0.17c0.03-0.05,0.06-0.09,0.09-0.14c0.07-0.11,0.15-0.22,0.22-0.33c0.02-0.03,0.05-0.07,0.07-0.1
								c0.05-0.06,0.09-0.12,0.14-0.18c0.03-0.03,0.05-0.07,0.08-0.1c0.05-0.06,0.1-0.12,0.15-0.18c0.02-0.03,0.05-0.06,0.07-0.09
								c0.06-0.06,0.11-0.13,0.17-0.19c0.01-0.01,0.01-0.02,0.02-0.02c0.21-0.22,0.43-0.43,0.66-0.63c0.01-0.01,0.03-0.03,0.04-0.04
								c0.07-0.06,0.15-0.12,0.22-0.18c0.01-0.01,0.02-0.02,0.04-0.03c0.33-0.26,0.68-0.5,1.05-0.71c0,0,0,0,0.01,0
								c0.09-0.05,0.19-0.1,0.28-0.15c0,0,0.01,0,0.01,0c0.39-0.2,0.79-0.37,1.21-0.51c0,0,0,0,0,0l0.75,0.34l-0.11,1.01l-0.38-0.15
								l-0.36,0.24l-0.54-0.09l0.05,0.57l0.36,0.8l0.76,0.4c0,0-0.37,0.74-0.77,0.66c-0.39-0.08-0.72-0.49-0.72-0.49l-0.02-0.49
								l-0.54,0.25l-0.33-0.17l-0.2,0.39l-0.34,0.12l-0.54-0.09l-0.22,0.22l-0.52,0.3l-0.2,0.39l0.71,0.08l0.87-0.45l1.83,0.17
								l0.9,0.67l1.14,1.04l-0.59,1.06l0.29,1.15c0,0-1.2,1.22-2.38,0.95c-1.18-0.27-1.26-0.1-1.26-0.1l-0.37-0.2l-0.09,0.42
								l-0.01,1.09l-0.38,0.79l0.28,0.76l-0.52,1.34l0.35,0.97l-0.12,0.14c-0.4-0.38-0.76-0.81-1.07-1.26c0,0,0,0,0,0
								c-0.08-0.11-0.15-0.22-0.22-0.34c0,0,0-0.01-0.01-0.01c-0.07-0.11-0.14-0.23-0.2-0.34c0-0.01-0.01-0.01-0.01-0.02
								c-0.06-0.11-0.12-0.22-0.18-0.34c-0.01-0.01-0.01-0.02-0.02-0.03c-0.05-0.11-0.11-0.22-0.16-0.33
								c-0.01-0.02-0.01-0.03-0.02-0.05c-0.05-0.11-0.09-0.22-0.13-0.33c-0.01-0.02-0.02-0.04-0.02-0.06
								c-0.04-0.11-0.08-0.21-0.11-0.32c-0.01-0.03-0.02-0.05-0.03-0.08c-0.03-0.1-0.06-0.21-0.09-0.31
								c-0.01-0.03-0.02-0.06-0.03-0.1c-0.03-0.1-0.05-0.2-0.07-0.3c-0.01-0.04-0.02-0.08-0.03-0.11c-0.02-0.1-0.04-0.2-0.05-0.3
								c-0.01-0.04-0.02-0.08-0.02-0.13c-0.02-0.1-0.03-0.2-0.04-0.3c-0.01-0.04-0.01-0.09-0.02-0.13c-0.01-0.1-0.02-0.21-0.02-0.31
								c0-0.04-0.01-0.08-0.01-0.12c-0.01-0.15-0.01-0.29-0.01-0.44c0-0.13,0-0.27,0.01-0.4C20.31,16.35,20.31,16.3,20.31,16.26z"/>
							<path class="st57" d="M29.39,8.35c1.44,0.11,2.78,0.57,3.93,1.31c0,0,0,0,0,0c0.57,0.37,1.1,0.8,1.57,1.3c0,0,0,0,0,0
								c0.74,0.77,1.33,1.69,1.73,2.7l-0.91,0.31l-0.4,0.18l-0.31-0.38l0.32-1.17L34.92,12l-0.66-0.99l-2.83-0.59l-0.56-0.58
								l-0.54-0.4l-0.76-0.3L29.39,8.35L29.39,8.35z"/>
							<path class="st57" d="M32.89,24.06l-0.76-0.64l-0.57-1.64l-0.88-0.55c0,0-0.31-0.5-0.32-1.35c0,0-0.53-0.47-0.4-1.08
								l1.43-0.5l0.47-0.6l0.26-0.53l1.43-0.35l0.39-0.35l0.76-0.03l0.29-0.21l-0.25-0.2l0.32,0.07l0.29,0.25l0.24,0.22l0.52,0.04
								l0.57-0.17l0.21-1.02l-0.29-0.57l0.2-0.51l0.07,0.01c0,0,0,0,0,0c0.08,0.25,0.14,0.51,0.19,0.78c0,0.01,0,0.02,0.01,0.03
								c0.02,0.12,0.05,0.24,0.06,0.36c0.01,0.03,0.01,0.07,0.01,0.11c0.01,0.1,0.03,0.2,0.04,0.31c0,0,0,0,0,0
								c-0.09,0.09-0.1,0.15-0.1,0.15l-0.33,0.51l-0.66,0.6l0.33,0.98l0.15,0.68c0,0-0.16,1.2-1.44,1.68l-0.12,0.56
								c0,0-0.08,0.27-0.37,0.28l0.06,1.34c0,0,0,0.05-0.01,0.12c0,0,0,0,0,0c-0.13,0.12-0.26,0.24-0.39,0.36
								c-0.01,0.01-0.02,0.02-0.03,0.03c-0.28,0.24-0.57,0.46-0.87,0.66c0,0,0,0-0.01,0c-0.15,0.1-0.31,0.2-0.47,0.29c0,0,0,0,0,0
								L32.89,24.06z"/>
						</g>
						<path class="st58" d="M28.76,8.4c-4.66,0-8.44,3.77-8.46,8.43c0-0.01,0-0.03,0-0.04c0-4.68,3.79-8.47,8.47-8.47
							c4.68,0,8.47,3.79,8.47,8.47c0,0.01,0,0.03,0,0.04C37.2,12.17,33.42,8.4,28.76,8.4z"/>
						<g class="st59">
							<path class="st60" d="M30.25,8.45c0.48,0.09,0.95,0.21,1.4,0.37c-4.68,1.39-8.59,4.04-11.34,7.66
								c0.02-0.54,0.09-1.06,0.2-1.57C23.03,12,26.36,9.79,30.25,8.45z"/>
							<path class="st60" d="M21.6,21.31c2.69-5.12,7.57-8.63,13.71-9.88c0.67,0.82,1.19,1.77,1.52,2.81
								c-5.85,1.13-10.46,4.57-12.78,9.59C23.07,23.17,22.24,22.31,21.6,21.31z"/>
							<path class="st60" d="M33.29,9.64c0.55,0.35,1.06,0.76,1.51,1.23c-6.03,1.29-10.86,4.73-13.61,9.72
								c-0.32-0.64-0.57-1.33-0.72-2.05C23.31,14.12,27.8,11.01,33.29,9.64z"/>
						</g>
					</g>
					<ellipse class="st61" cx="28.31" cy="49.75" rx="7.22" ry="3.12"/>
					<g>
						<path class="st62" d="M30.13,46.73c-0.72,1.98-1.2,4.04-1.41,6.13c-0.13,0-0.27,0.01-0.4,0.01c-0.85,0-1.67-0.06-2.43-0.18
							c0.2-2.05,0.63-4.06,1.26-6.01c0.38-0.03,0.77-0.04,1.17-0.04C28.94,46.63,29.55,46.67,30.13,46.73z"/>
						<path class="st62" d="M24.92,47c0.49-0.11,1.01-0.2,1.56-0.26c-0.6,1.9-1.01,3.86-1.21,5.85c-0.5-0.1-0.96-0.22-1.39-0.37
							C24.08,50.45,24.42,48.7,24.92,47z"/>
						<path class="st62" d="M22.83,47.72c0.25-0.13,0.53-0.25,0.82-0.35c-0.38,1.44-0.67,2.92-0.84,4.4
							c-0.24-0.12-0.47-0.26-0.67-0.4C22.31,50.15,22.54,48.93,22.83,47.72z"/>
					</g>
					<path class="st63" d="M21.58,49.4c0,1.53,3.01,2.77,6.73,2.77c3.72,0,6.73-1.24,6.73-2.77c0-1.53-3.01-2.77-6.73-2.77
						C24.59,46.63,21.58,47.87,21.58,49.4z"/>
					<g>
						<path class="st64" d="M21.61,49.05l0.01-0.03c0.01-0.11,0.03-0.22,0.07-0.33l0.4-1.89l1.58,0.24c1.21-0.5,2.85-0.81,4.66-0.81
							c1.87,0,3.56,0.33,4.78,0.87l1.5-0.08l0.43,1.91L35,48.94c0.01,0.06,0.02,0.12,0.02,0.19c0,1.6-3,2.9-6.71,2.9
							c-3.7,0-6.71-1.3-6.71-2.9C21.61,49.1,21.61,49.08,21.61,49.05L21.61,49.05z"/>
						<g>
							<path class="st65" d="M30.27,46.36c-0.7,1.83-1.19,3.72-1.45,5.66c-0.17,0.01-0.33,0.01-0.5,0.01
								c-0.82,0-1.61-0.06-2.34-0.18c0.24-1.9,0.68-3.77,1.3-5.58c0.34-0.02,0.68-0.03,1.03-0.03
								C28.99,46.23,29.65,46.28,30.27,46.36z"/>
							<path class="st65" d="M25.04,46.6c0.49-0.12,1.02-0.21,1.58-0.28c-0.59,1.76-1,3.57-1.24,5.41c-0.5-0.11-0.96-0.24-1.38-0.39
								C24.21,49.74,24.56,48.15,25.04,46.6z"/>
							<path class="st65" d="M23.04,46.95l0.62,0.09c0.03-0.01,0.07-0.03,0.1-0.04c-0.35,1.27-0.63,2.56-0.82,3.86
								c-0.25-0.14-0.46-0.3-0.65-0.46C22.47,49.24,22.72,48.09,23.04,46.95z"/>
						</g>
						<ellipse class="st66" cx="28.31" cy="47.17" rx="6.28" ry="2.76"/>
						<ellipse class="st67" cx="28.31" cy="47.12" rx="6.28" ry="2.71"/>
					</g>
					<ellipse class="st68" cx="28.31" cy="47.02" rx="6.03" ry="2.61"/>
					<path class="st69" d="M22.55,46.16l0.66-1.55l1.34,0.34c1.03-0.34,2.34-0.55,3.76-0.55c1.34,0,2.58,0.18,3.58,0.49l1.46-0.49
						l0.75,1.79c0.16,0.22,0.24,0.46,0.24,0.7c0,1.38-2.7,2.5-6.03,2.5c-3.33,0-6.03-1.12-6.03-2.5
						C22.28,46.65,22.37,46.4,22.55,46.16z"/>
					<g>
						<path class="st70" d="M26.43,49.28c0.37-1.66,0.9-3.29,1.56-4.86c0.11,0,0.21-0.01,0.32-0.01c0.09,0,0.19,0,0.28,0
							c0.7,0.3,1.4,0.61,2.1,0.91c-0.57,1.31-1.02,2.66-1.36,4.04c-0.33,0.02-0.67,0.04-1.01,0.04
							C27.65,49.4,27.02,49.36,26.43,49.28z"/>
						<path class="st70" d="M23.73,44.74l0.69,0.18c-0.4,1.13-0.74,2.28-1.01,3.44c-0.24-0.14-0.45-0.29-0.62-0.45
							C23.05,46.84,23.36,45.78,23.73,44.74z"/>
						<path class="st70" d="M25.71,44.65c0.5-0.1,1.04-0.17,1.61-0.21c-0.63,1.54-1.13,3.12-1.49,4.74
							c-0.5-0.09-0.96-0.21-1.37-0.36C24.77,47.41,25.19,46.01,25.71,44.65z"/>
					</g>
					<g>
						<path class="st64" d="M22.98,44.27L22.98,44.27L22.98,44.27c0.02-0.04,0.04-0.08,0.06-0.12l0.2-0.36l0.08,0.01
							c0.85-0.82,2.76-1.4,4.98-1.4c2.13,0,3.97,0.53,4.87,1.29l0.17-0.02l0.26,0.51c0.02,0.04,0.04,0.08,0.06,0.11l0.01,0.01l0,0
							c0.06,0.14,0.09,0.29,0.09,0.43c0,1.3-2.44,2.36-5.45,2.36s-5.45-1.05-5.45-2.36C22.86,44.6,22.9,44.43,22.98,44.27z"/>
						<g>
							<path class="st65" d="M26.22,43.38c0.43,0.19,0.87,0.38,1.3,0.57c-0.43,0.99-0.8,2-1.12,3.02c-0.5-0.08-0.97-0.19-1.38-0.33
								C25.36,45.54,25.76,44.45,26.22,43.38z"/>
							<path class="st65" d="M27.02,47.05c0.3-0.97,0.66-1.93,1.06-2.86c0.87,0.38,1.74,0.75,2.6,1.13
								c-0.24,0.55-0.46,1.11-0.66,1.68c-0.54,0.08-1.12,0.12-1.72,0.12C27.87,47.12,27.43,47.1,27.02,47.05z"/>
							<path class="st65" d="M24.34,43.15c0.22-0.1,0.46-0.19,0.72-0.28c0.05,0.02,0.1,0.04,0.14,0.06
								c-0.46,1.07-0.86,2.16-1.21,3.26c-0.24-0.13-0.44-0.28-0.61-0.43C23.66,44.89,23.98,44.01,24.34,43.15z"/>
						</g>
						<ellipse class="st66" cx="28.31" cy="44.09" rx="5.1" ry="2.24"/>
						<ellipse class="st67" cx="28.31" cy="44.05" rx="5.1" ry="2.2"/>
					</g>
					<path class="st61" d="M20.67,18.5c0.48,1.57,1.71,2.96,3.24,3.58c1.17,0.47,2.9,0.39,3.74-2.38c0.29,0.02,0.09,1.03,0.38,1.01
						c0.09,0.01,0.19,0.02,0.29,0.03c0.27,0.95,1.14,1.76,1.89,2.35c0.83,0.65,1.78,1.01,2.83,1.05c0.98,0.03,1.99-0.17,2.64-0.94
						c0.33-0.39,0.69-0.87,0.91-1.39l0.15,0.16c0,0-4.07,9.24-4.86,12.58c-0.77,3.25-0.07,7.27,1.04,9
						c0.03,0.04,0.06,0.09,0.09,0.13c0,0,0.01,0.01,0.01,0.01c0,0,0,0,0,0c0.07,0.13,0.11,0.27,0.11,0.41
						c0,1.06-2.16,1.91-4.82,1.91c-2.66,0-4.82-0.86-4.82-1.91c0-0.15,0.04-0.29,0.12-0.42c0,0,0,0,0,0s0.01-0.01,0.02-0.04
						c0-0.01,0.01-0.02,0.01-0.02c0.23-0.38,1.5-2.65,1.41-5.5c-0.1-3.13-1.92-9.56-1.92-9.56s-2.56-7.32-2.56-7.3
						c0,0.02-0.36-2.01-0.36-2.01L20.67,18.5z"/>
					<g>
						<path class="st71" d="M35.84,23.2c-0.63,0.74-1.59,0.95-2.54,0.94c0.89-0.01,1.78-0.24,2.38-0.94
							c0.33-0.39,0.69-0.87,0.91-1.39l0.11,0.11C36.48,22.4,36.15,22.84,35.84,23.2z"/>
						<path class="st71" d="M25.06,22.3c0.97-0.03,2-0.65,2.59-2.6c0.06,0,0.1,0.05,0.12,0.12C27.14,21.78,26.05,22.33,25.06,22.3z"
							/>
						<path class="st71" d="M20.67,18.5c0.02,0.06,0.04,0.12,0.06,0.18l-0.34,0.59c0,0,0.36,2.04,0.36,2.01
							c0-0.02,2.56,7.3,2.56,7.3s1.82,6.43,1.92,9.56c0.09,2.85-1.18,5.12-1.41,5.5c0,0.01-0.01,0.02-0.01,0.02
							c-0.01,0.02-0.02,0.04-0.02,0.04s0,0,0,0c-0.08,0.14-0.12,0.28-0.12,0.42c0,1.05,2.11,1.9,4.74,1.91c-0.03,0-0.05,0-0.08,0
							c-2.66,0-4.82-0.86-4.82-1.91c0-0.15,0.04-0.29,0.12-0.42c0,0,0,0,0,0s0.01-0.01,0.02-0.04c0-0.01,0.01-0.02,0.01-0.02
							c0.23-0.38,1.5-2.65,1.41-5.5c-0.1-3.13-1.92-9.56-1.92-9.56s-2.56-7.32-2.56-7.3c0,0.02-0.36-2.01-0.36-2.01L20.67,18.5z"/>
					</g>
					<g>
						<path class="st71" d="M32.93,44.12c0-0.14-0.04-0.28-0.11-0.41c0,0,0,0,0,0c0,0-0.01-0.01-0.01-0.01
							c-0.03-0.04-0.05-0.09-0.09-0.13c-1.1-1.74-1.81-5.75-1.04-9c0.79-3.35,4.86-12.58,4.86-12.58l-0.01-0.02
							c0.02-0.05,0.04-0.09,0.07-0.14l0.15,0.16c0,0-4.07,9.24-4.86,12.58c-0.77,3.25-0.07,7.27,1.04,9
							c0.03,0.04,0.06,0.09,0.09,0.13c0,0,0.01,0.01,0.01,0.01c0,0,0,0,0,0c0.07,0.13,0.11,0.27,0.11,0.41
							c0,1.06-2.16,1.91-4.82,1.91c-0.03,0-0.07,0-0.1,0C30.83,46.01,32.93,45.16,32.93,44.12z"/>
						<path class="st71" d="M23.71,22.08c-1.46-0.59-2.64-1.88-3.16-3.36l0.13-0.22c0.48,1.57,1.71,2.96,3.24,3.58
							c0.29,0.12,0.62,0.2,0.97,0.22C24.46,22.31,24.06,22.22,23.71,22.08z"/>
						<path class="st71" d="M32.84,24.14c-1.05-0.03-2.01-0.4-2.83-1.05c-0.75-0.59-1.62-1.4-1.89-2.35
							c-0.1-0.02-0.2-0.03-0.29-0.03c-0.21,0.02-0.16-0.54-0.24-0.83c0.02-0.06,0.04-0.12,0.06-0.18c0.29,0.02,0.09,1.03,0.38,1.01
							c0.09,0.01,0.19,0.02,0.29,0.03c0.27,0.95,1.14,1.76,1.89,2.35c0.83,0.65,1.78,1.01,2.83,1.05c0.03,0,0.06,0,0.09,0
							C33.03,24.14,32.93,24.14,32.84,24.14z"/>
					</g>
					<path class="st72" d="M28.45,20.69c0,0,0.29,2.11,3.08,2.9c3.24,0.91,5.8-3.68,5.7-7.02c0,0,0.11,0,0.19,0.11
						c0,0,0.63,4.26-1.78,7.13c-2.41,2.87-5.91,1.16-7.19-2.45l-0.41-0.4L28.45,20.69z"/>
					<path class="st73" d="M28.46,20.61c0,0,0.3,2.07,3.09,2.84c3.24,0.89,5.78-3.61,5.68-6.88c0,0,0.11,0,0.19,0.11
						c0,0,0.64,4.18-1.76,6.99c-2.4,2.81-5.91,1.14-7.2-2.4l-0.41-0.4L28.46,20.61z"/>
					<path class="st72" d="M27.65,19.77c0,0-0.52,3.16-2.7,3.51c-2.18,0.35-4.27-2.41-4.73-5.54l0.06-0.72c0,0,0.85,4.17,3.66,5.09
						C26.78,23.05,27.65,19.77,27.65,19.77z"/>
					<path class="st73" d="M27.65,19.7c0,0-0.53,3.08-2.71,3.42c-2.18,0.34-4.26-2.34-4.71-5.4l0.06-0.7c0,0,0.84,4.06,3.64,4.96
						C26.76,22.89,27.65,19.7,27.65,19.7z"/>
					<path class="st73" d="M20.53,17.02c0,0,0.05,5.37,3.05,8.95c0.4,2.7-1.25,1.75-1.25,1.75l-0.88-3.07l-0.93-2.53l-0.59-3.53"/>
					<path class="st73" d="M29.86,19.16c0,0-0.22,1.23-1.1,2.48c0,0-1.9,6.93,0,13.61c1.9,6.67,4.37,8.91,4.37,8.91
						s-2.4-1.46-3.96-4.45c-1.57-3-3.06-9.66-3.06-9.66l1.06-6.89l1.12-2.93l0.49-1.07H29.86z"/>
					<path class="st74" d="M28.7,35.25c-1.9-6.67,0-13.61,0-13.61c0.88-1.25,1.1-2.48,1.1-2.48h0.06c0,0-0.22,1.23-1.1,2.48
						c0,0-1.9,6.93,0,13.61c1.9,6.67,4.37,8.91,4.37,8.91s-0.07-0.04-0.18-0.12C32.43,43.5,30.35,41.05,28.7,35.25z"/>
					<path class="st73" d="M27.15,38.13c0,0,1.24,4.13,5.65,6.69c-3.05-1.01-5.65-3.34-5.65-3.34l-1.05-2.02l-0.9-2.59v-1.51
						l0.67-0.27"/>
					<path class="st74" d="M26.95,37.83l-1.16-2.69l-0.59,0.24v-0.03l0.67-0.27l1.28,3.04c0,0,1.24,4.13,5.65,6.69
						C28.09,42.24,26.95,37.83,26.95,37.83z"/>
					<path class="st72" d="M33.13,44.16c0,0-4.44-4.42-5.8-10.63c-1.39-6.37,1.13-12.26,1.13-12.26s0.91-1.09,1.4-2.12
						c0.08-0.17,0.02-0.36-0.14-0.46l-0.37-0.23c-0.16-0.1-0.36-0.08-0.49,0.04l-0.66,0.58l0.02-0.2c0.01-0.1-0.05-0.18-0.15-0.2
						l0,0c-0.1-0.02-0.2,0.03-0.23,0.13c-0.11,0.33-0.32,1.13-0.16,1.96c0,0-1.28,5.6-2.8,6.35l-0.01-1.07c0,0,0.59-0.58,0.62-1.12
						c0.03-0.55-0.28-1.52-1.38-1.48c-1.1,0.05-1.2,1.31-1.2,1.31l-0.14,1.02c-0.02,0.12,0.04,0.24,0.14,0.3l0.21,0.14l0.08,0.82
						c0,0-1.22-1.11-2.15-5.09c-0.83-3.55-0.55-4.42-0.51-4.94h-0.24l0,0c0,0,0-0.66,0.05-1.14L20,16.46
						c-0.21,0.35-0.33,0.75-0.33,1.17c0,0.05,0,0.09,0,0.14c0.02,0.35-0.03,0.59,0.08,1.3c0.09,0.59,0.51,4.6,1.95,8.26
						c1.44,3.66,1.98,5.14,2.52,8.45c0.53,3.25,0.4,6.31,8.34,9.26l0.24-0.2c0,0-4.55-2.64-6.04-5.32
						c-1.12-2.02-1.07-3.63-1.07-3.63s2.57,4.74,7.37,8.57L33.13,44.16z"/>
					<g>
						<path class="st75" d="M24.23,35.81c0.49,0.35,1.01,0.69,1.56,1.03c0.09,0.47,0.25,1.08,0.54,1.78
							c-0.57-0.23-1.16-0.49-1.77-0.8C24.42,37.16,24.34,36.49,24.23,35.81z"/>
						<path class="st75" d="M26.57,37.3c0.81,0.46,1.68,0.89,2.61,1.28c0.19,0.37,0.38,0.72,0.58,1.06
							c-0.57-0.11-1.19-0.27-1.85-0.47C27.37,38.46,26.92,37.82,26.57,37.3z"/>
						<path class="st75" d="M23.36,31.88c-0.39-1.31-0.9-2.63-1.66-4.56c-0.49-1.25-0.87-2.53-1.15-3.71
							c1.32,2.32,3.34,4.99,6.41,7.28c0.06,0.86,0.18,1.75,0.37,2.65c0.11,0.52,0.25,1.02,0.4,1.51
							C26.35,34.21,24.85,33.17,23.36,31.88z"/>
					</g>
					<g>
						<path class="st75" d="M22.99,24.77l-0.14,1.02c-0.02,0.12,0.04,0.24,0.14,0.3l0.21,0.14l0.08,0.82c0,0-0.04-0.03-0.1-0.1
							l-0.07-0.71l-0.21-0.14c-0.1-0.07-0.15-0.18-0.14-0.3l0.14-1.02c0,0,0.1-1.27,1.2-1.31c0.03,0,0.05,0,0.08,0
							C23.09,23.51,22.99,24.77,22.99,24.77z"/>
						<path class="st75" d="M27.92,18.82c-0.11,0.33-0.32,1.13-0.16,1.96c0,0-1.36,5.63-2.89,6.38v-0.04
							c1.49-0.91,2.8-6.35,2.8-6.35c-0.16-0.84,0.05-1.63,0.16-1.96c0.03-0.1,0.13-0.15,0.23-0.13c0,0,0,0,0,0
							C28,18.71,27.95,18.75,27.92,18.82z"/>
						<path class="st75" d="M25.69,35.88c0-0.1,0-0.16,0-0.16s2.63,4.84,7.39,8.66l-0.01,0.06C28.77,41.01,26.18,36.72,25.69,35.88z
							"/>
						<path class="st75" d="M28.95,18.51l-0.66,0.58l0.01-0.08l0.57-0.5c0.09-0.08,0.2-0.11,0.32-0.1
							C29.09,18.42,29.01,18.45,28.95,18.51z"/>
						<path class="st75" d="M19.67,17.62c0-0.41,0.12-0.81,0.33-1.17l0.34-0.58c-0.01,0.05-0.01,0.11-0.01,0.17l-0.24,0.41
							c-0.21,0.35-0.33,0.75-0.33,1.17c0,0.05,0,0.09,0,0.14c0.02,0.35-0.03,0.59,0.08,1.3c0.09,0.59,0.51,4.6,1.95,8.26
							c1.44,3.66,1.98,5.14,2.52,8.45c0.53,3.24,0.4,6.3,8.28,9.23l-0.03,0.02c-7.94-2.94-7.81-6-8.34-9.26
							c-0.54-3.31-1.08-4.79-2.52-8.45c-1.44-3.66-1.86-7.67-1.95-8.26c-0.11-0.71-0.06-0.96-0.08-1.3
							C19.67,17.71,19.67,17.67,19.67,17.62z"/>
					</g>
				</g>
			</g>
		</g>
	</g>
</g>
</svg>
