<?xml version="1.0" encoding="utf-8"?>
<!-- Generator: Adobe Illustrator 24.0.1, SVG Export Plug-In . SVG Version: 6.00 Build 0)  -->
<svg version="1.1" id="Layer_1" xmlns="http://www.w3.org/2000/svg" xmlns:xlink="http://www.w3.org/1999/xlink" x="0px" y="0px"
	 viewBox="0 0 300 100" style="enable-background:new 0 0 300 100;" xml:space="preserve">
<style type="text/css">
	.st0{fill-rule:evenodd;clip-rule:evenodd;fill:#FFFFFF;stroke:#82173B;stroke-width:1.086;stroke-miterlimit:10;}
</style>
<g>
	<path class="st0" d="M150.28,41.17c-4.77,0-8.63,3.86-8.63,8.61c0,4.77,3.86,8.63,8.63,8.63c4.75,0,8.61-3.86,8.61-8.63
		C158.89,45.03,155.02,41.17,150.28,41.17z M142.64,50.43c-0.08-0.93,0.02-1.86,0.27-2.76l0.65,1.16L142.64,50.43L142.64,50.43z
		 M143.36,46.48c0.89-1.86,2.51-3.31,4.49-3.97l1.65,2.87l-1.69,2.95h-3.38L143.36,46.48L143.36,46.48z M148.84,42.26
		c0.46-0.08,0.93-0.15,1.43-0.15c1.58,0,3.08,0.51,4.3,1.33l-0.84,1.46h-3.38L148.84,42.26L148.84,42.26z M155.36,44.06
		c1.22,1.1,2.11,2.59,2.43,4.28h-1.5l-1.69-2.95L155.36,44.06L155.36,44.06z M157.92,49.31c0.13,2-0.53,3.95-1.86,5.46l-1.46-2.53
		l1.69-2.93L157.92,49.31L157.92,49.31z M155.34,55.51c-1.35,1.2-3.12,1.92-5.06,1.92c-0.21,0-0.4,0-0.61-0.02l-0.99-1.75l1.69-2.93
		h3.38L155.34,55.51L155.34,55.51z M146.02,56.14h1.79l0.61,1.08C147.56,56.99,146.76,56.63,146.02,56.14z M144.84,55.17
		c-0.89-0.89-1.56-2-1.92-3.25l1.52-2.62h3.38l1.69,2.93l-1.69,2.93H144.84L144.84,55.17z M150.36,51.76l-1.69-2.93l1.69-2.95h3.38
		l1.71,2.95l-1.71,2.93H150.36z"/>
	
		<rect x="169.82" y="46.2" transform="matrix(-0.7071 0.7071 -0.7071 -0.7071 331.216 -37.6272)" class="st0" width="7.17" height="7.17"/>
	
		<rect x="188.95" y="47.29" transform="matrix(-0.7071 0.7071 -0.7071 -0.7071 362.0187 -50.3861)" class="st0" width="4.99" height="4.99"/>
	
		<rect x="205.08" y="48.19" transform="matrix(-0.7071 0.7071 -0.7071 -0.7071 388.0251 -61.1583)" class="st0" width="3.19" height="3.19"/>
	
		<rect x="106.6" y="47.29" transform="matrix(0.7071 -0.7071 0.7071 0.7071 -3.2503 91.72)" class="st0" width="4.99" height="4.99"/>
	
		<rect x="92.26" y="48.19" transform="matrix(0.7071 -0.7071 0.7071 0.7071 -7.7123 80.9479)" class="st0" width="3.19" height="3.19"/>
	
		<rect x="123.55" y="46.2" transform="matrix(-0.7071 0.7071 -0.7071 -0.7071 252.2345 -4.912)" class="st0" width="7.17" height="7.17"/>
</g>
</svg>
