<?xml version="1.0" encoding="utf-8"?>
<!-- Generator: Adobe Illustrator 24.0.1, SVG Export Plug-In . SVG Version: 6.00 Build 0)  -->
<svg version="1.1" id="Layer_1" xmlns="http://www.w3.org/2000/svg" xmlns:xlink="http://www.w3.org/1999/xlink" x="0px" y="0px"
	 viewBox="0 0 111 15" style="enable-background:new 0 0 111 15;" xml:space="preserve">
<style type="text/css">
	.st0{fill-rule:evenodd;clip-rule:evenodd;fill:#82173B;}
</style>
<g id="layer1_00000024717679735495761910000010073888429021203092_" transform="translate(168.90625,-158.87732)">
	
		<g id="g4227_00000100374884938685673790000011879415091297692051_" transform="matrix(1.9309091,0,0,1.9309091,-305.55695,-216.73738)">
		<path id="path4153_00000124151091699331158260000008205217763847013767_" class="st0" d="M80.71,194.49v3.19H79.2v-0.88
			c0-0.54-0.61-1.22-1.12-1.22h-2.16c0,0-0.23-0.03-0.23,0.4v1.39c0,0-0.03,0.35,0.37,0.37c0.23,0.01,0.53,0.02,0.69-0.07
			c0.19-0.11,0.22-0.34,0.22-0.55v-0.57h1.34v3.64h-1.34v-1.03c0,0,0.02-0.48-0.38-0.48h-0.67c0,0-0.28,0.03-0.28,0.25v1.61
			c0,0-0.03,0.44,0.42,0.44h2.19c0.08,0,0.94-0.23,0.94-0.96v-1.09h1.53v3.14h-9.65v-1.01h1.2c0,0,0.35-0.01,0.35-0.31v-4.83
			c0,0,0.01-0.3-0.3-0.3H71.1v-1.12H80.71z"/>
		<path id="path4157_00000121271260998178153230000003536330096889180038_" class="st0" d="M81.19,194.5h6v0.99h-0.9
			c0,0-0.52,0.01-0.52,0.43v4.7c0,0,0.03,0.33,0.33,0.33h1.76c0,0,0.98,0.03,0.98-0.96v-1.34h1.67v3.4h-9.33v-1.01h0.9
			c0,0,0.38,0.03,0.38-0.23v-4.72c0,0,0.02-0.44-0.33-0.44h-0.95L81.19,194.5z"/>
		<path id="path4179_00000068646866117116881230000014647149944082901943_" class="st0" d="M100.9,194.49h-6.62v1.12h1.23
			c0.32,0,0.3,0.3,0.3,0.3v4.83c0,0.3-0.35,0.31-0.35,0.31h-1.2v1.01h6.22l-0.01-1.09h-1.22c-0.45,0-0.42-0.44-0.42-0.44v-1.61h2.97
			c0,0,2.56,0.02,2.56-2.18C104.36,196.74,104.38,194.49,100.9,194.49L100.9,194.49z M101.16,196.67c-0.02-0.69-0.38-1.07-1.12-1.1
			H99.1c0,0-0.26-0.02-0.26,0.4c0,0.68,0,2.03,0,2.03h1.18c0,0,1.19,0.02,1.19-1.34"/>
		<path id="path4189_00000077322092786432720280000003769717288087205040_" class="st0" d="M106.61,194.5l-3.14,6.3
			c0,0-0.09,0.18-0.25,0.18h-0.6v1.08h4.01v-1.08h-1.03c0,0-0.52,0-0.31-0.37c0.18-0.31,0.35-0.68,0.35-0.68H109l0.31,0.64
			c0,0,0.28,0.41-0.19,0.41H108v1.08h5.34v-1.08h-0.59c0,0-0.15-0.02-0.25-0.19c-0.1-0.17-3-6.29-3-6.29H106.61z M107.29,196.41
			l1.24,2.54l-2.43,0L107.29,196.41L107.29,196.41z"/>
		<path id="path4211_00000164473449067273755570000007829451954866097810_" class="st0" d="M119.49,194.49h-5.77v1.12h1.23
			c0.32,0,0.3,0.3,0.3,0.3v4.83c0,0.3-0.35,0.31-0.35,0.31h-1.2v1.01h5.78l-0.01-1.09h-0.78c-0.45,0-0.42-0.44-0.42-0.44
			c0-1.52,0-3.03,0-4.55c0-0.43,0.26-0.4,0.26-0.4h0.95L119.49,194.49z"/>
		<path id="path4217_00000066500323900192169500000010390038877909406365_" class="st0" d="M121.36,202.04h-1.15v-2.83l1.17,0.02
			c0,0-0.06,0.99,0.96,1.5s1.98,0.39,2.24,0.33c0.17-0.04,1.14-0.2,1.15-0.87c0.01-0.67-1.39-0.97-2.58-1.1s-2.21-0.28-2.82-1.29
			c-0.61-1-0.14-1.88,0.21-2.23c0.41-0.41,1.15-1.09,3.34-1.09s2.27,0.61,2.58,0.35c0.1-0.09,0.12-0.34,0.12-0.34h1.32v2.56h-1.4
			v-0.32c0,0,0-0.22-0.15-0.42s-0.77-0.87-1.87-0.87s-1.73,0.31-1.73,0.65s0.21,0.6,0.74,0.78c0.53,0.18,2.08,0.3,3.01,0.59
			s1.81,0.97,1.81,1.92s-0.54,2.68-3.48,2.68c-2.93,0-3.14-0.55-3.37-0.32C121.37,201.86,121.36,202.04,121.36,202.04L121.36,202.04
			z"/>
	</g>
</g>
</svg>
