<?xml version="1.0" encoding="utf-8"?>
<!-- Generator: Adobe Illustrator 24.0.1, SVG Export Plug-In . SVG Version: 6.00 Build 0)  -->
<svg version="1.1" id="Layer_1" xmlns="http://www.w3.org/2000/svg" xmlns:xlink="http://www.w3.org/1999/xlink" x="0px" y="0px"
	 viewBox="0 0 120 20" style="enable-background:new 0 0 120 20;" xml:space="preserve">
<style type="text/css">
	.st0{fill-rule:evenodd;clip-rule:evenodd;fill:#FFFFFF;stroke:#82173B;stroke-width:1.086;stroke-miterlimit:10;}
</style>
<g>
	<path class="st0" d="M59.62,1.48c-4.77,0-8.63,3.86-8.63,8.61c0,4.77,3.86,8.63,8.63,8.63c4.75,0,8.61-3.86,8.61-8.63
		C68.23,5.34,64.36,1.48,59.62,1.48z M51.98,10.74C51.9,9.81,52,8.88,52.26,7.97l0.65,1.16L51.98,10.74L51.98,10.74z M52.7,6.79
		c0.89-1.86,2.51-3.31,4.49-3.97l1.65,2.87l-1.69,2.95h-3.38L52.7,6.79L52.7,6.79z M58.18,2.57c0.46-0.08,0.93-0.15,1.43-0.15
		c1.58,0,3.08,0.51,4.3,1.33l-0.84,1.46H59.7L58.18,2.57L58.18,2.57z M64.7,4.37c1.22,1.1,2.11,2.59,2.43,4.28h-1.5l-1.69-2.95
		L64.7,4.37L64.7,4.37z M67.26,9.62c0.13,2-0.53,3.95-1.86,5.46l-1.46-2.53l1.69-2.93L67.26,9.62L67.26,9.62z M64.68,15.82
		c-1.35,1.2-3.12,1.92-5.06,1.92c-0.21,0-0.4,0-0.61-0.02l-0.99-1.75l1.69-2.93h3.38L64.68,15.82L64.68,15.82z M55.36,16.45h1.79
		l0.61,1.08C56.9,17.3,56.1,16.94,55.36,16.45z M54.18,15.48c-0.89-0.89-1.56-2-1.92-3.25l1.52-2.62h3.38l1.69,2.93l-1.69,2.93
		H54.18L54.18,15.48z M59.7,12.07l-1.69-2.93l1.69-2.95h3.38l1.71,2.95l-1.71,2.93H59.7z"/>
	
		<rect x="79.16" y="6.51" transform="matrix(-0.7071 0.7071 -0.7071 -0.7071 148.3844 -41.2761)" class="st0" width="7.17" height="7.17"/>
	
		<rect x="98.29" y="7.6" transform="matrix(-0.7071 0.7071 -0.7071 -0.7071 179.1871 -54.035)" class="st0" width="4.99" height="4.99"/>
	
		<rect x="114.42" y="8.5" transform="matrix(-0.7071 0.7071 -0.7071 -0.7071 205.1934 -64.8072)" class="st0" width="3.19" height="3.19"/>
	
		<rect x="15.94" y="7.6" transform="matrix(0.7071 -0.7071 0.7071 0.7071 -1.7389 15.9887)" class="st0" width="4.99" height="4.99"/>
	<rect x="1.6" y="8.5" transform="matrix(0.7071 -0.7071 0.7071 0.7071 -6.2009 5.2165)" class="st0" width="3.19" height="3.19"/>
	
		<rect x="32.89" y="6.51" transform="matrix(-0.7071 0.7071 -0.7071 -0.7071 69.4029 -8.5609)" class="st0" width="7.17" height="7.17"/>
</g>
</svg>
